<svg width="1600" height="1200" viewBox="0 0 1600 1200" fill="none" xmlns="http://www.w3.org/2000/svg">
<path d="M1081.1 678.5H519.8C491.7 678.5 468.9 655.7 468.9 627.6V289.3C468.9 261.2 491.7 238.4 519.8 238.4H1081.1C1109.2 238.4 1132 261.2 1132 289.3V627.6C1132 655.7 1109.2 678.5 1081.1 678.5ZM519.8 242.4C493.9 242.4 472.9 263.4 472.9 289.3V627.6C472.9 653.5 493.9 674.5 519.8 674.5H1081.1C1107 674.5 1128 653.5 1128 627.6V289.3C1128 263.4 1107 242.4 1081.1 242.4H519.8Z" fill="black"/>
<path d="M800.4 508.8C759.9 508.8 726.9 475.8 726.9 435.3C726.9 394.8 759.9 361.8 800.4 361.8C840.9 361.8 873.9 394.8 873.9 435.3C873.9 475.8 840.9 508.8 800.4 508.8ZM800.4 365.8C762.1 365.8 730.9 397 730.9 435.3C730.9 473.6 762.1 504.8 800.4 504.8C838.7 504.8 869.9 473.6 869.9 435.3C869.9 397 838.7 365.8 800.4 365.8Z" fill="black"/>
<path d="M792.4 462.7C786.1 462.7 780.9 457.5 780.9 451.2V419.6C780.9 417.7 781.4 415.8 782.4 413.9C785.5 408.4 792.6 406.5 798.1 409.6L825.5 425.4C827.3 426.4 828.8 427.9 829.8 429.7C831.3 432.3 831.7 435.4 830.9 438.4C830.1 441.4 828.2 443.8 825.5 445.3L798.1 461.1C796.5 462.2 794.5 462.7 792.4 462.7ZM792.4 412C789.8 412 787.3 413.3 785.9 415.7C785.2 417 784.9 418.3 784.9 419.5V451.1C784.9 455.2 788.3 458.6 792.4 458.6C793.8 458.6 795 458.3 796.2 457.6L823.6 441.8C825.3 440.8 826.6 439.2 827.1 437.3C827.6 435.3 827.4 433.3 826.4 431.5C825.8 430.3 824.8 429.4 823.7 428.8C823.7 428.8 823.7 428.8 823.6 428.8L796.2 413C795 412.4 793.7 412 792.4 412Z" fill="black"/>
<path d="M1381.9 549.7H1278.9V651.7H1381.9V549.7Z" fill="white"/>
<path d="M1379.9 551.7V649.7H1280.9V551.7H1379.9ZM1383.9 547.7H1276.9V653.7H1383.9V547.7Z" fill="black"/>
<path d="M1330.4 601.7C1358.84 601.7 1381.9 578.643 1381.9 550.2C1381.9 521.757 1358.84 498.7 1330.4 498.7C1301.96 498.7 1278.9 521.757 1278.9 550.2C1278.9 578.643 1301.96 601.7 1330.4 601.7Z" fill="white"/>
<path d="M1330.4 500.7C1357.7 500.7 1379.9 522.9 1379.9 550.2C1379.9 577.5 1357.7 599.7 1330.4 599.7C1303.1 599.7 1280.9 577.5 1280.9 550.2C1280.9 522.9 1303.1 500.7 1330.4 500.7ZM1330.4 496.7C1300.9 496.7 1276.9 520.7 1276.9 550.2C1276.9 579.7 1300.9 603.7 1330.4 603.7C1359.9 603.7 1383.9 579.7 1383.9 550.2C1383.9 520.7 1359.9 496.7 1330.4 496.7Z" fill="black"/>
<path d="M1357.9 652.7C1356.8 652.7 1355.9 651.8 1355.9 650.7V594.7C1355.9 593.6 1356.8 592.7 1357.9 592.7C1359 592.7 1359.9 593.6 1359.9 594.7V650.7C1359.9 651.8 1359 652.7 1357.9 652.7Z" fill="black"/>
<path d="M1329.9 652.7C1328.8 652.7 1327.9 651.8 1327.9 650.7V601.7C1327.9 600.6 1328.8 599.7 1329.9 599.7C1331 599.7 1331.9 600.6 1331.9 601.7V650.7C1331.9 651.8 1331 652.7 1329.9 652.7Z" fill="black"/>
<path d="M1303.9 652.7C1302.8 652.7 1301.9 651.8 1301.9 650.7V594.7C1301.9 593.6 1302.8 592.7 1303.9 592.7C1305 592.7 1305.9 593.6 1305.9 594.7V650.7C1305.9 651.8 1305 652.7 1303.9 652.7Z" fill="black"/>
<path d="M1397.5 385.9C1365.5 362.9 1347.8 404 1376.6 417.6C1344.8 417.2 1342.6 461.8 1381.5 455.2C1413.2 448.2 1457.5 436.3 1457.5 436.3C1457.5 436.3 1422.8 406.2 1397.5 385.9Z" fill="white"/>
<path d="M1374 457.9C1362.4 457.9 1356.7 452.8 1354.1 449.3C1349.8 443.4 1349.3 435.5 1352.9 428.5C1356.2 422 1362.5 417.6 1370.3 416.2C1364 411.5 1360.3 404.8 1360.1 397.5C1359.9 389.7 1363.8 382.7 1370.3 379.3C1374.9 376.9 1384.7 374.3 1398.7 384.3C1398.7 384.3 1398.8 384.3 1398.8 384.4C1423.8 404.5 1458.5 434.5 1458.9 434.8C1459.5 435.3 1459.7 436 1459.5 436.8C1459.3 437.6 1458.8 438.1 1458.1 438.3C1457.7 438.4 1413.4 450.3 1382 457.2C1379 457.6 1376.4 457.9 1374 457.9ZM1376.2 419.6C1367.2 419.6 1360 423.5 1356.5 430.3C1353.6 435.9 1354 442.2 1357.4 446.9C1361.8 452.9 1370.2 455.1 1381.2 453.2C1407.2 447.5 1442.1 438.3 1453.4 435.3C1444.6 427.7 1417.1 404.1 1396.4 387.5C1387.4 381 1378.8 379.3 1372.3 382.8C1367.2 385.5 1364.1 391.1 1364.2 397.4C1364.4 405.2 1369.2 411.9 1377.6 415.8C1378.5 416.2 1378.9 417.1 1378.7 418.1C1378.5 419 1377.7 419.7 1376.8 419.7C1376.4 419.6 1376.3 419.6 1376.2 419.6Z" fill="black"/>
<path d="M1457.4 438.4C1457.2 438.4 1457.1 438.4 1456.9 438.3L1376 419.5C1374.9 419.3 1374.3 418.2 1374.5 417.1C1374.7 416 1375.8 415.4 1376.9 415.6L1457.8 434.4C1458.9 434.6 1459.5 435.7 1459.3 436.8C1459.1 437.8 1458.3 438.4 1457.4 438.4Z" fill="black"/>
<path d="M1329.9 552.7C1328.8 552.7 1327.9 551.8 1327.9 550.7V297.7C1327.9 296.6 1328.8 295.7 1329.9 295.7C1331 295.7 1331.9 296.6 1331.9 297.7V550.7C1331.9 551.8 1331 552.7 1329.9 552.7Z" fill="black"/>
<path d="M1286.9 481C1329.7 472.7 1310.1 427.4 1277.3 440.2C1301.8 415 1267.6 379.3 1243.4 415.5C1225 446.3 1200.9 490.9 1200.9 490.9C1200.9 490.9 1251.4 486 1286.9 481Z" fill="white"/>
<path d="M1200.9 492.9C1200.2 492.9 1199.6 492.6 1199.2 492C1198.8 491.4 1198.8 490.6 1199.1 489.9C1199.3 489.5 1223.4 444.9 1241.6 414.4C1241.6 414.4 1241.6 414.3 1241.7 414.3C1252.2 398.6 1263.2 397.5 1268.9 398.2C1276.8 399.2 1283.5 404.9 1286.4 413C1289.1 420.7 1287.8 429.1 1282.9 436.5C1291.6 434.8 1299.9 436.9 1306 442.4C1312.3 448.1 1314.9 456.5 1312.8 464.1C1311.3 469.6 1305.9 479.3 1287.3 482.9H1287.2C1252.1 487.8 1201.6 492.8 1201.1 492.8C1201 492.9 1201 492.9 1200.9 492.9ZM1245.1 416.6C1229.8 442.2 1210.4 477.7 1204.5 488.6C1216.9 487.4 1257.1 483.2 1286.6 479.1C1298.8 476.7 1306.7 471.1 1308.9 463.1C1310.6 456.9 1308.5 450.1 1303.3 445.4C1296.9 439.6 1287.7 438.4 1278.1 442.1C1277.2 442.4 1276.2 442.1 1275.7 441.3C1275.2 440.5 1275.3 439.5 1275.9 438.8C1283 431.4 1285.5 422.5 1282.6 414.3C1280.3 407.7 1274.8 403 1268.4 402.2C1260.3 401.2 1252 406.3 1245.1 416.6Z" fill="black"/>
<path d="M1200.9 492.9C1200.3 492.9 1199.6 492.6 1199.2 492C1198.6 491.1 1198.8 489.8 1199.8 489.2L1276.2 438.5C1277.1 437.9 1278.4 438.1 1279 439.1C1279.6 440 1279.4 441.3 1278.4 441.9L1202 492.6C1201.7 492.8 1201.3 492.9 1200.9 492.9Z" fill="black"/>
<path d="M1394.6 461.1C1372.1 418.8 1330.8 454 1354.7 484.3C1320.3 466.7 1293.9 514.1 1339.7 527.9C1378 537.3 1432.6 548.2 1432.6 548.2C1432.6 548.2 1411.3 496.8 1394.6 461.1Z" fill="white"/>
<path d="M1432.6 550.2C1432.5 550.2 1432.3 550.2 1432.2 550.2C1431.7 550.1 1377.1 539.2 1339.2 529.9H1339.1C1319.3 523.9 1314.6 512.8 1313.5 506.6C1312 498 1315.8 489.3 1323.3 483.7C1330.6 478.3 1340 477.1 1349.4 480C1344.7 471.3 1344.1 461.8 1348 453.6C1352 445.2 1359.8 439.8 1368.5 439.6C1374.7 439.4 1386.6 441.9 1396.3 460.2V460.3C1412.8 495.6 1434.1 547 1434.3 547.5C1434.6 548.2 1434.5 549 1434 549.5C1433.8 549.9 1433.2 550.2 1432.6 550.2ZM1340.2 526C1372.3 533.9 1416.4 542.9 1429.3 545.5C1424.2 533.4 1406.8 491.9 1392.8 462C1386.4 449.9 1377.8 443.4 1368.7 443.6C1361.5 443.8 1355 448.3 1351.7 455.3C1347.6 464 1349.3 474.1 1356.3 483C1356.9 483.7 1356.9 484.8 1356.3 485.5C1355.7 486.2 1354.7 486.4 1353.8 486C1343.7 480.8 1333.5 481.1 1325.7 486.8C1319.4 491.4 1316.3 498.7 1317.5 505.8C1319.1 514.9 1327.1 522 1340.2 526Z" fill="black"/>
<path d="M1432.7 550.3C1432.3 550.3 1431.8 550.2 1431.4 549.8L1353.5 485.9C1352.6 485.2 1352.5 483.9 1353.2 483.1C1353.9 482.2 1355.2 482.1 1356 482.8L1433.9 546.7C1434.8 547.4 1434.9 548.7 1434.2 549.5C1433.9 550.1 1433.3 550.3 1432.7 550.3Z" fill="black"/>
<path d="M1298.6 357.8C1285.2 389.2 1323.2 396.4 1329.3 369.6L1330 297.7C1329.9 297.7 1310.9 332.6 1298.6 357.8Z" fill="white"/>
<path d="M1310.9 388.1C1305.8 388.1 1301.1 386 1297.9 382.2C1294.9 378.7 1290.9 370.8 1296.8 357V356.9C1303.3 343.6 1311.4 328.1 1317.1 317.3C1320.8 310.4 1323.6 305.1 1325 302.5C1328.7 295.6 1328.7 295.6 1330 295.6C1330.5 295.6 1331 295.8 1331.4 296.2C1331.8 296.6 1332 297.1 1332 297.6L1331.3 369.5C1331.3 369.6 1331.3 369.8 1331.3 369.9C1329.2 378.9 1323.3 385.5 1315.5 387.4C1313.9 387.9 1312.4 388.1 1310.9 388.1ZM1300.4 358.6C1296.7 367.4 1296.8 374.8 1300.9 379.6C1304.1 383.3 1309.3 384.9 1314.5 383.6C1320.9 382 1325.5 376.8 1327.3 369.3L1327.9 305.6C1321.8 317 1309.4 340.2 1300.4 358.6Z" fill="black"/>
<path d="M1277.6 442C1277 442 1276.3 441.7 1275.9 441.1C1275.3 440.2 1275.5 438.9 1276.5 438.3L1292.3 427.8C1301.8 421.4 1314.4 421.9 1323.5 429.1L1331.1 435.1C1332 435.8 1332.1 437 1331.4 437.9C1330.7 438.8 1329.5 438.9 1328.6 438.2L1321 432.2C1313.2 426.1 1302.6 425.7 1294.5 431.1L1278.7 441.6C1278.4 441.9 1278 442 1277.6 442Z" fill="black"/>
<path d="M1329.9 424.7C1329.3 424.7 1328.7 424.4 1328.3 423.9C1327.6 423 1327.8 421.8 1328.7 421.1L1334.8 416.6C1341.7 411.4 1350.5 409.6 1358.9 411.6L1373.3 414.9C1374.4 415.1 1375.1 416.2 1374.8 417.3C1374.6 418.4 1373.5 419 1372.4 418.8L1358 415.5C1350.7 413.8 1343.1 415.4 1337.1 419.9L1331 424.4C1330.7 424.6 1330.3 424.7 1329.9 424.7Z" fill="black"/>
<path d="M1354.9 486.2C1354.5 486.2 1354 486.1 1353.6 485.7L1329.2 465.8C1328.3 465.1 1328.2 463.8 1328.9 463C1329.6 462.1 1330.9 462 1331.7 462.7L1356.1 482.6C1357 483.3 1357.1 484.6 1356.4 485.4C1356.1 485.9 1355.5 486.2 1354.9 486.2Z" fill="black"/>
<path d="M1418.9 653.7H1241.9C1240.8 653.7 1239.9 652.8 1239.9 651.7C1239.9 650.6 1240.8 649.7 1241.9 649.7H1418.9C1420 649.7 1420.9 650.6 1420.9 651.7C1420.9 652.8 1420 653.7 1418.9 653.7Z" fill="black"/>
<path d="M166.4 926.4L146.9 905.3L155.3 874.4L172.9 871.2C176.9 870.9 180.8 870.4 184.6 869.8C218.3 864 236.9 846.3 237.1 846.1C237.1 846.1 247.4 836.8 269 812.2L295 796.4L342.7 907.4C337.5 913 332.6 918.6 328.9 922.9C324.1 928.6 322.5 930.9 322.2 932.3C292.3 954.8 263.4 972.5 236.4 985L166.4 926.4Z" fill="white"/>
<path d="M294.2 799.2L340.5 906.9C335.6 912.2 333.1 919 329.6 923.1C326 926.8 320.6 930.9 320.6 930.9C291.4 952.8 263.2 970.2 236.8 982.5L167.8 924.9L149.2 904.7L157 876L173.3 873.1C177.3 872.8 181.2 872.3 185 871.6C218.2 865.9 237.2 848.7 238.5 847.5C239.3 846.8 249.6 837.3 270.4 813.7L294.2 799.2ZM296 793.4L267.8 810.6C246.1 835.3 235.9 844.5 235.8 844.6C235.6 844.8 217.3 862.1 184.3 867.7C180.6 868.3 176.7 868.8 172.7 869.1L153.7 872.5L144.6 905.7L164.9 927.8L236.1 987.2L236.2 987.1C264 974.4 293.6 956.2 324.3 933L324.5 932.9L324.2 932.6C323.6 931.5 334.4 919 344.9 907.7L345 907.6L296 793.4Z" fill="black"/>
<path d="M235.8 844.8C235.5 844.4 210.4 800.1 231.3 783L231.6 782.8C231.6 782.8 232 782.5 232.5 782.5C234.5 782.5 241.3 783.5 250.1 789.7C260 796.6 268.1 810.6 268.2 810.8L268.3 810.9L268.2 811C246.4 835.7 236.3 844.9 236.2 845L236 845.2L235.8 844.8Z" fill="black"/>
<path d="M324.1 933C322.1 931 304.6 913.1 294.8 888.8C289.6 876 285.6 862 282.1 849.6C277.5 833.4 273.5 819.4 268 811C250.9 781.6 231.3 783 231.3 783C232.4 782.1 233.7 781.2 235 780.5C254.8 769.6 428.3 690.3 430 689.5L430.3 689.4L413.3 852.8C390 878.7 356.9 908.7 324.7 933.1L324.6 933.2L324.1 933Z" fill="#F696BB"/>
<path d="M412.9 876.9C412.5 876.8 367.8 862.8 357 841.1C354.3 835.6 353.9 830.1 355.8 824.6C356 824.3 360 820 370.4 820C376.4 820 383.4 821.5 391.1 824.5C399.9 827.9 408.3 832.3 416.1 837.4L416.2 837.5V837.6C416 865.2 413.2 876.6 413.2 876.7L413.1 876.9H412.9V876.9Z" fill="black"/>
<path d="M114.7 885.8C114.9 885.5 122.3 869.6 163 869.6C166.2 869.6 169.4 869.4 172.7 869.1H172.9L173 869.4C177.5 889.2 174.8 909.9 165.4 927.9L165.3 928.1L114.7 885.8Z" fill="#E16259"/>
<path d="M631 581.8L615.9 650.7H775.9C775.9 650.7 721.9 546.7 714.9 539.7C704.7 529.5 631 581.8 631 581.8Z" fill="black"/>
<path d="M731 609C718.8 609 709 599.1 709 587C709 574.8 718.9 565 731 565C743.1 565 753 574.9 753 587C753.1 599.2 743.2 609 731 609Z" fill="white"/>
<path d="M731 567C742.1 567 751 576 751 587C751 598 742 607 731 607C720 607 711 598 711 587C711 576 720 567 731 567ZM731 563C717.7 563 707 573.8 707 587C707 600.2 717.8 611 731 611C744.2 611 755 600.2 755 587C755 573.8 744.3 563 731 563Z" fill="black"/>
<path d="M687.6 634.3C672.1 634.3 655 622 643 602.1C625.3 572.9 622.4 542.6 636.2 531.5C644.5 524.8 654.9 521.5 666.9 521.5C682.5 521.5 695.4 527.2 695.5 527.3C708 533.2 715.2 540.8 718.7 551.8C722.6 564.2 722 581 716.7 604.7C712.6 623.5 702 634.3 687.6 634.3Z" fill="white"/>
<path d="M667 519.5V523.5C681.8 523.5 694.2 528.8 694.8 529.1C715.5 538.8 726 554.8 714.9 604.2C710.8 622.3 701.1 632.3 687.7 632.3C672.9 632.3 656.5 620.3 644.8 601.1C636.2 586.9 630.9 572 629.9 559.1C628.9 547.1 631.7 537.9 637.6 533.1C645.6 526.7 655.5 523.5 667.1 523.5L667 519.5ZM667 519.5C656.6 519.5 645.1 521.9 635 530C620.6 541.5 622.8 572.6 641.3 603.2C654.2 624.5 672 636.3 687.6 636.3C701.7 636.3 713.9 626.5 718.8 605.1C729.8 556.2 720.6 536.8 696.5 525.5C696.5 525.4 683.2 519.5 667 519.5Z" fill="black"/>
<path d="M696.5 525.4C719.1 536.1 728.7 553.8 720.6 596.5C686 581.7 683 534.7 683 534.7C683 534.7 661 562.7 626 560.9C624.6 547.2 627.6 536 635.1 530C660.8 509.4 696.5 525.4 696.5 525.4Z" fill="black"/>
<path d="M661.1 595.5C660.9 595.5 660.8 595.5 660.6 595.4C658.5 594.9 656.5 593.7 655 592C652.9 589.4 651.7 584.4 650.6 573.7C650.5 572.6 651.3 571.6 652.4 571.5C653.5 571.4 654.5 572.2 654.6 573.3C655.5 582.8 656.6 587.6 658.1 589.4C659 590.5 660.2 591.2 661.5 591.5C662.6 591.8 663.2 592.8 663 593.9C662.8 594.9 662 595.5 661.1 595.5Z" fill="black"/>
<path d="M670 578C669.1 578 668.2 577.4 668 576.4L667.5 574C667.3 572.9 668 571.9 669.1 571.6C670.2 571.4 671.2 572.1 671.5 573.2L672 575.6C672.2 576.7 671.5 577.7 670.4 578C670.3 578 670.1 578 670 578Z" fill="black"/>
<path d="M641.7 578C640.8 578 640 577.4 639.8 576.5L639.2 574C638.9 572.9 639.6 571.8 640.7 571.6C641.8 571.3 642.9 572 643.1 573.1L643.7 575.6C644 576.7 643.3 577.8 642.2 578C642 578 641.9 578 641.7 578Z" fill="black"/>
<path d="M670.1 606.4C669 606.4 668.1 605.5 668.1 604.4C668.1 603.3 669 602.4 670.1 602.4C670.5 602.4 670.9 602.4 671.2 602.3C674.5 601.7 676.8 598.4 676.2 595.1C676 594 676.7 593 677.8 592.8C678.9 592.6 679.9 593.3 680.1 594.4C681.1 599.9 677.4 605.2 671.9 606.2C671.3 606.4 670.7 606.4 670.1 606.4Z" fill="black"/>
<path d="M733.4 589.7C733.3 589.7 733.3 589.7 733.2 589.7L721.4 588.6C720.3 588.5 719.5 587.5 719.6 586.4C719.7 585.3 720.7 584.5 721.8 584.6L733.6 585.7C734.7 585.8 735.5 586.8 735.4 587.9C735.3 588.9 734.4 589.7 733.4 589.7Z" fill="black"/>
<path d="M389.2 985.2C386 976.1 380.8 949.1 379.9 944.1L385.8 935.7C396.9 924.2 408 909.1 414.7 877C414.7 876.8 417.7 861.6 417.7 837.5C417.7 837.1 415.6 805.5 414.9 794.9L531.1 863.6L530.7 903.4C525.6 933.2 518.1 960.7 508.5 985.1L389.2 985.2Z" fill="white"/>
<path d="M417.2 798.6L529.1 864.8L528.7 903.3C523.7 932.4 516.5 959.3 507.1 983.2H390.6C388 974.9 384 955.7 381.9 944.6L387.3 937.1C398.5 925.4 409.9 910 416.6 877.5C416.6 877.3 419.7 861.9 419.7 837.7V837.6V837.5C419.7 837.1 418 811.5 417.2 798.6ZM412.7 791.3V791.7C412.7 792.2 415.7 837.2 415.7 837.6C415.7 861.4 412.7 876.5 412.7 876.7C406.1 908.4 395.1 923.2 384.2 934.5L377.7 943.7V943.8C377.8 944.1 384.2 978.4 387.7 987.1L387.8 987.2H509.9L510 987.1C519.9 962.3 527.6 934.2 532.8 903.7L533.2 862.6L412.7 791.3Z" fill="black"/>
<path d="M347.8 987C347.8 986.9 347 972.4 363.9 954.5C367.6 950.6 371.4 947 375 943.5C378.2 940.4 381.3 937.5 384.3 934.4L384.4 934.2L384.5 934.4C398.4 949.1 408.3 967.2 413 986.9V987.2L347.8 987.1V987V987Z" fill="#E16259"/>
<path d="M706.9 986.9C685.5 986.9 662.2 985.4 634.8 967.9C601.2 946.4 569.9 906.1 539.1 844.5C539 849.1 538 872.7 532.7 903.7V903.9H532.5C532.3 903.9 508.5 901.7 481.8 884.9C468 876.2 459.2 869.4 449.9 862.1C440.6 854.9 431.1 847.5 416.1 838C373.5 811.3 355.7 824.6 355.7 824.6C362.5 805.3 385.7 746.9 424.7 663.6C433.7 644.4 454.7 631.5 476.9 631.5C518.8 631.5 565.6 667.7 597.4 698.1C631.1 730.2 655.6 762.7 657 764.5H779V764.6C794.1 810.6 801.2 850.5 800 883.3C799 911 792.2 933.8 779.7 951.1C755.8 984.3 718 986.9 706.9 986.9Z" fill="#F696BB"/>
<path d="M538.9 845.7C538.9 845.7 538.8 845.7 538.9 845.7C537.7 845.7 536.9 844.7 536.9 843.6C538.9 798.3 531 746.8 530.9 746.3C530.7 745.2 531.5 744.2 532.6 744C533.7 743.8 534.7 744.6 534.9 745.7C535 746.2 542.9 798.1 540.9 843.8C540.9 844.9 540 845.7 538.9 845.7Z" fill="black"/>
<path d="M687.3 813.7C686.6 813.7 686 813.4 685.6 812.7C676 796.6 665.5 780.4 655.3 765.8C654.7 764.9 654.9 763.6 655.8 763C656.7 762.4 658 762.6 658.6 763.5C668.9 778.2 679.4 794.5 689.1 810.6C689.7 811.5 689.4 812.8 688.4 813.3C688 813.6 687.7 813.7 687.3 813.7Z" fill="black"/>
<path d="M344.9 783.7L344.5 783.5C339.5 781.1 313.6 768.5 292 756.9C291 756.3 289.9 755.6 289 754.9L288.7 754.7L289 754.6C302.6 748.2 318.7 740.7 336.9 732.3L337.1 732.2V732.5C341 754.9 344.4 778.6 345 783.2L345.1 784L344.9 783.7Z" fill="#E16259"/>
<path d="M290.4 877C287.6 868.7 285.1 860.3 283.1 853.1V853V852.9C289 843.4 294.3 834.9 299 827.6C303.7 821.1 309.3 817.6 314.9 817.6C320.3 817.6 325.1 821 327.2 826.3C328.2 828.7 330.6 836.9 322.6 845.1C324.8 844.4 326.9 844.1 328.9 844.1C338.6 844.1 344.4 851.1 344.9 857.8C345.4 864.3 341 872 327.3 874.1C316.9 875.2 304.5 876.2 290.6 877.2H290.5L290.4 877Z" fill="#E16259"/>
<path d="M682.8 895.3C677.9 895.3 673.3 892.4 670.8 887.9C667.9 882.6 668.2 876.2 671.7 870.1C668.4 872.1 664.9 873.2 661.5 873.2C654.2 873.2 648 868.4 646.6 861.8C645.1 854.4 650.1 847.5 660.1 843.3C683.2 834.9 710.7 826.3 716 824.7L716.8 824.4L716.6 825.2C715 830.5 706.8 858.1 698.8 881.4C695.2 890.2 689.4 895.3 682.8 895.3Z" fill="#E16259"/>
<path d="M505.9 682.1C499.7 682.1 494.7 678.1 493.1 672C491.7 666.5 493.2 658.4 502 653.1C501.7 653.1 501.3 653.1 501 653.1C494.4 653.1 488.9 650.3 485.8 645.4C483.1 641.2 482.7 636.2 484.7 632L484.8 631.9H484.9C502.4 633.7 521.9 641.3 542.9 654.5L543.1 654.6L542.9 654.8C534.5 662.8 526.9 669.9 520.3 675.9C515.4 680 510.4 682.1 505.9 682.1Z" fill="#E16259"/>
<path d="M763.7 915.5C753 915.5 748.1 908.9 748 902.3C747.8 894.8 753.5 886.9 764.7 886C755.4 881.9 752.5 873.8 753.7 867.5C755 860.9 760.2 856.7 766.9 856.7C771 856.7 775.4 858.2 780.1 861.2C786.1 865.4 792.8 870.4 800.2 875.8L800.3 875.9V876C800.4 886.2 799.5 896.5 797.8 906.6V906.7H797.7C787.8 909.8 778.8 912.5 770.9 914.7C768.3 915.2 765.9 915.5 763.7 915.5Z" fill="#E16259"/>
<path d="M579.8 913.1C574.3 905.6 568.7 897.1 563.1 888V887.9C563.3 879.6 563.5 872 563.8 865.3C565.1 851.7 572.4 846.8 578.8 846.8C583.2 846.8 587.5 849 590.3 852.7C593.5 856.9 594.4 862.4 593 868.3C596.8 864.1 601.6 861.8 606.6 861.8C612.8 861.8 618.3 865.4 620.2 870.9C622.5 877.3 619.4 884.6 611.8 890.8C603 897.3 592.3 904.8 580.2 913.2L580 913.3L579.8 913.1Z" fill="#E16259"/>
<path d="M466.1 874.3C460.2 870 455.1 866.2 449.8 862L447.2 860L447.3 859.9C453.1 846.7 458.4 835.1 463.1 825.3C467.4 817.5 473.1 813.2 479.2 813.2C484.3 813.2 489 816.3 491.3 821.2C494 826.9 493.1 833.7 488.7 839.5C491.6 838.2 494.4 837.5 497.2 837.5C504.9 837.5 511.6 842.8 512.6 849.9C513.9 859.2 505.5 865.1 497.2 867.5C488.3 869.6 478 871.9 466.3 874.3H466.1Z" fill="#E16259"/>
<path d="M422 784.7C416.5 784.7 410.9 781.2 406.2 774.7C400.8 766.5 394.7 756.8 387.9 745.8L387.8 745.7V745.6C390.6 739.1 393.6 732.3 396.6 725.4L396.7 725.3H396.8C410.8 726.2 423.7 727.2 434.2 728.3C447.9 730.4 452.3 738 451.8 744.5C451.3 751.1 445.5 758.2 435.8 758.2C433.8 758.2 431.7 757.9 429.5 757.2C437.6 765.3 435.2 773.6 434.2 776C432.2 781.3 427.3 784.7 422 784.7Z" fill="#E16259"/>
<path d="M702.6 986.9C694.5 986.9 686.3 986.2 678.2 984.9H678.1V984.8C671.8 975.3 666.3 966.6 661.7 959.2C657.5 951.6 656.9 944.6 659.9 939.5C662.3 935.5 666.6 933.1 671.6 933.1C677.2 933.1 684.2 936.3 687.5 945.3C689 934.5 696.8 929.6 703.6 929.6C707.8 929.6 711.7 931.5 714.1 934.7C716.4 937.8 718.6 943.5 715.7 953.3C712.3 962.9 708.1 974.1 703.3 986.7L703.2 986.9H702.6Z" fill="#E16259"/>
<path d="M356.4 826.4C356.2 826.4 356 826.4 355.7 826.3C354.7 825.9 354.1 824.8 354.5 823.7C362.1 802.3 381.3 755.4 407 698.6C407.5 697.6 408.6 697.1 409.6 697.6C410.6 698.1 411.1 699.2 410.6 700.2C385 757 365.8 803.8 358.3 825.1C358 825.9 357.2 826.4 356.4 826.4Z" fill="black"/>
<path d="M787.9 796.7H676.9C675.8 796.7 674.9 795.8 674.9 794.7C674.9 793.6 675.8 792.7 676.9 792.7H787.9C789 792.7 789.9 793.6 789.9 794.7C789.9 795.8 789 796.7 787.9 796.7Z" fill="black"/>
<path d="M493.2 772.3C484 765.8 474.2 758.9 464 753C432 734.2 420.9 733.6 409.1 732.8C405.8 732.6 402.3 732.4 398.3 731.7C393.1 730.8 389.9 729.1 388.7 726.5C387 723 389.5 718.7 389.5 718.6L390.2 717.4L389.4 716.3C384 709.3 390.5 703.8 391.2 703.2L392.6 702.1L391.7 700.6C390.3 698.2 389.9 696 390.5 694.1C391.6 690.5 395.8 688.5 395.9 688.5L397.1 688V686.7C397.1 678.1 409.7 672.8 430.1 672.8C443.8 672.8 459.5 675.2 475.6 679.6C487.4 682.9 503.3 688.4 523 696L563.5 715.6L528 790.9L493.2 772.3Z" fill="white"/>
<path d="M429.9 674.8C443.4 674.8 458.9 677.1 474.8 681.6C486.5 684.9 502.4 690.3 522 697.9L560.6 716.6L527.1 788.2L494.2 770.6C485 764.1 475.2 757.2 464.9 751.3C432.5 732.3 421.1 731.6 409.2 730.9C405.9 730.7 402.5 730.5 398.6 729.8C395.5 729.3 391.6 728.2 390.5 725.7C389.3 723.2 391.2 719.7 391.2 719.7L392.6 717.4L391 715.2C389.2 712.8 388.8 710.6 389.9 708.3C390.8 706.3 392.5 704.9 392.5 704.9L395.3 702.7L393.5 699.7C392.4 697.8 392 696.2 392.5 694.8C393.2 692.5 395.8 690.8 396.8 690.4L399.1 689.3V686.7C398.9 679.5 411.1 674.8 429.9 674.8ZM429.9 670.8C409.1 670.8 394.9 676.3 394.9 686.7C394.9 686.7 383.9 691.7 389.9 701.7C389.9 701.7 380.9 708.7 387.7 717.6C387.7 717.6 379.9 730.7 397.9 733.7C415.9 736.7 421.9 730.7 462.9 754.7C472.9 760.6 482.5 767.2 492.1 774L528.9 793.7L565.9 714.7L523.6 694.2C506.3 687.5 489.2 681.5 475.9 677.7C459.2 673 443.2 670.8 429.9 670.8Z" fill="black"/>
<path d="M596.8 819.9C595.4 819.9 593.9 819.9 592.5 819.8C553 817.5 523.8 796.8 495.7 776.8L491.9 774.1L523.6 693.9L523.8 694C560.7 708.2 599 725.2 601.9 726.5C603 724.1 615.5 698.5 634.8 664.7C655.8 628 671 615.6 695 615.6C706.9 615.6 721 618.3 750.1 650.7C780.7 684.8 799 713.6 800.2 729.8C801.2 744.3 795.4 753.1 790.4 758C784.9 763.2 779.1 765 779.1 765H682.2C680.4 767.5 647.3 819.9 596.8 819.9Z" fill="#E16259"/>
<path d="M681.9 766.7C681.5 766.7 681.2 766.6 680.9 766.4C680 765.8 679.7 764.6 680.2 763.6C687.7 751.5 699 733.1 713.1 698.9C713.5 697.9 714.7 697.4 715.7 697.8C716.7 698.2 717.2 699.4 716.8 700.4C702.6 734.9 691.2 753.4 683.7 765.7C683.2 766.4 682.6 766.7 681.9 766.7Z" fill="black"/>
<path d="M459 691.7C458.8 691.7 458.7 691.7 458.5 691.6C458.2 691.5 423.9 682.8 396.7 690.6C395.6 690.9 394.5 690.3 394.2 689.2C393.9 688.1 394.5 687 395.6 686.7C423.8 678.6 458 687.3 459.5 687.7C460.6 688 461.2 689.1 460.9 690.1C460.7 691.1 459.9 691.7 459 691.7Z" fill="black"/>
<path d="M454.2 706.7C454 706.7 453.9 706.7 453.7 706.6C453.4 706.5 423.7 698.8 392.6 704.6C391.5 704.8 390.5 704.1 390.3 703C390.1 701.9 390.8 700.9 391.9 700.7C424 694.7 453.5 702.4 454.8 702.7C455.9 703 456.5 704.1 456.2 705.1C455.9 706.1 455.1 706.7 454.2 706.7Z" fill="black"/>
<path d="M449.2 721.7C449.1 721.7 449 721.7 448.9 721.7C417.7 716.5 401.3 717.9 390.6 719.7C389.5 719.9 388.5 719.1 388.3 718.1C388.1 717 388.9 716 389.9 715.8C401 714 417.8 712.5 449.6 717.8C450.7 718 451.4 719 451.2 720.1C451 721 450.2 721.7 449.2 721.7Z" fill="black"/>
<path d="M324.9 390.1C324.4 390.1 323.9 389.9 323.5 389.5L288 352.8L252.5 389.5C251.7 390.3 250.5 390.3 249.7 389.5C248.9 388.7 248.9 387.5 249.7 386.7L286.6 348.5C287.4 347.7 288.7 347.7 289.5 348.5L326.4 386.7C327.2 387.5 327.1 388.8 326.4 389.5C325.9 389.9 325.4 390.1 324.9 390.1Z" fill="black"/>
<path d="M374 385.4H201.9V576.7H374V385.4Z" fill="white"/>
<path d="M374 578.7H201.9C200.8 578.7 199.9 577.8 199.9 576.7V385.4C199.9 384.3 200.8 383.4 201.9 383.4H374C375.1 383.4 376 384.3 376 385.4V576.7C376 577.8 375.1 578.7 374 578.7ZM203.9 574.7H372V387.4H203.9V574.7Z" fill="black"/>
<path d="M333.9 427.6C333.4 427.6 332.9 427.4 332.5 427C331.7 426.2 331.7 425 332.5 424.2L369.8 386.9C370.6 386.1 371.8 386.1 372.6 386.9C373.4 387.7 373.4 388.9 372.6 389.7L335.3 427C334.9 427.4 334.4 427.6 333.9 427.6Z" fill="black"/>
<path d="M242.1 427.6C241.6 427.6 241.1 427.4 240.7 427L203.4 389.7C202.6 388.9 202.6 387.7 203.4 386.9C204.2 386.1 205.4 386.1 206.2 386.9L243.5 424.2C244.3 425 244.3 426.2 243.5 427C243.1 427.4 242.6 427.6 242.1 427.6Z" fill="black"/>
<path d="M288 365.4C294.793 365.4 300.3 359.893 300.3 353.1C300.3 346.307 294.793 340.8 288 340.8C281.207 340.8 275.7 346.307 275.7 353.1C275.7 359.893 281.207 365.4 288 365.4Z" fill="white"/>
<path d="M288 367.4C280.1 367.4 273.7 361 273.7 353.1C273.7 345.2 280.1 338.8 288 338.8C295.9 338.8 302.3 345.2 302.3 353.1C302.3 361 295.9 367.4 288 367.4ZM288 342.8C282.3 342.8 277.7 347.4 277.7 353.1C277.7 358.8 282.3 363.4 288 363.4C293.7 363.4 298.3 358.8 298.3 353.1C298.3 347.4 293.7 342.8 288 342.8Z" fill="black"/>
<path d="M204.8 575.8C204.3 575.8 203.8 575.6 203.4 575.2C202.6 574.4 202.6 573.2 203.4 572.4L240.7 535.1C241.5 534.3 242.7 534.3 243.5 535.1C244.3 535.9 244.3 537.1 243.5 537.9L206.2 575.2C205.8 575.6 205.3 575.8 204.8 575.8Z" fill="black"/>
<path d="M371.2 575.8C370.7 575.8 370.2 575.6 369.8 575.2L332.5 537.9C331.7 537.1 331.7 535.9 332.5 535.1C333.3 534.3 334.5 534.3 335.3 535.1L372.6 572.4C373.4 573.2 373.4 574.4 372.6 575.2C372.2 575.6 371.7 575.8 371.2 575.8Z" fill="black"/>
<path d="M333.8 425.7H242.2V536.5H333.8V425.7Z" fill="white"/>
<path d="M331.8 427.7V534.5H244.2V427.7H331.8ZM335.8 423.7H240.2V538.5H335.8V423.7Z" fill="black"/>
<path d="M1369 783C1367.9 782.1 1366.6 781.2 1365.3 780.5C1345.5 769.6 1172.1 690.3 1170.3 689.5L1170 689.4L1187 852.8C1210.2 878.7 1243.4 908.8 1275.6 933.1L1276 933.2L1276.2 933C1278.1 931.1 1295.6 913.1 1305.5 888.8C1310.7 875.9 1314.7 861.9 1318.2 849.6C1322.8 833.4 1326.8 819.4 1332.3 811C1345.6 789.1 1361.1 783 1369 783Z" fill="#6C79D9"/>
<path d="M1183.9 837.6L1184 837.4C1191.8 832.2 1200.3 827.9 1209 824.5C1216.7 821.5 1223.7 820 1229.7 820C1240 820 1244.1 824.3 1244.2 824.5C1246.2 830 1245.8 835.6 1243 841.1C1232.1 862.7 1187.5 876.7 1187.1 876.9L1186.9 877C1186.9 877 1184.1 865.1 1183.9 837.6Z" fill="black"/>
<path d="M1364 844.8C1363.9 844.7 1353.7 835.5 1332 810.8L1331.9 810.7L1332 810.6C1332.1 810.5 1340.2 797.6 1349 790.6C1358.1 783.3 1366.8 783 1368.5 783C1368.7 783 1368.8 783 1368.8 783H1369C1389.9 800.1 1364.6 844.4 1364.4 844.8L1364.3 845L1364 844.8Z" fill="black"/>
<path d="M1024.9 659.7H1074.9L1087.9 562.7H1011.9L1024.9 659.7Z" fill="#E16259"/>
<path d="M1049.9 591.7C1070.89 591.7 1087.9 578.269 1087.9 561.7C1087.9 545.131 1070.89 531.7 1049.9 531.7C1028.91 531.7 1011.9 545.131 1011.9 561.7C1011.9 578.269 1028.91 591.7 1049.9 591.7Z" fill="#F696BB"/>
<path d="M1049.9 562.7C1048.8 562.7 1047.9 561.8 1047.9 560.7V507.7C1047.9 506.6 1048.8 505.7 1049.9 505.7C1051 505.7 1051.9 506.6 1051.9 507.7V560.7C1051.9 561.8 1051 562.7 1049.9 562.7Z" fill="black"/>
<path d="M1074.8 661.1C1072.4 661.1 1070.5 660.2 1069.6 658.4C1068.6 656.5 1069 654 1070.6 651.8L1071.8 650.2L1070.1 649C1070.1 649 1066.7 646.6 1066.7 643.4C1066.7 641.4 1068.1 639.3 1070.8 637.2L1073.7 635.1L1070.4 633.8C1070.4 633.8 1066.7 632.3 1066.2 629.3C1065.7 626.8 1067.5 623.6 1071.3 620.1L1073 618.5L1071.2 617C1071.2 617 1067.5 614 1067.5 610.2C1067.5 608.1 1068.7 606 1071.2 604.1C1073.4 602.3 1081.4 597.7 1084.3 596.1L1085.1 595.6L1086.3 589.1C1089.3 590.6 1091.2 593 1092 596.2C1093.2 601.1 1091.3 606.4 1089.6 608.2L1087.7 610.1L1090 611.4C1090.1 611.4 1092.3 612.8 1093 615.7C1093.8 618.7 1092.8 622.3 1090.2 626.6L1089.2 628.2L1090.7 629.3C1090.7 629.3 1093 631.1 1093.4 634.2C1093.7 636.7 1092.7 639.5 1090.3 642.4L1089.3 643.6L1090.3 644.8C1090.4 644.9 1092.1 647.2 1091.3 650.3C1090.4 653.8 1086.5 657 1080.1 659.7C1078.2 660.7 1076.4 661.1 1074.8 661.1Z" fill="white"/>
<path d="M1087.7 592.7C1088.8 593.8 1089.6 595.2 1090 596.8C1091 601.1 1089.3 605.6 1088.1 606.9L1084.4 610.6L1089 613.2C1089 613.2 1090.5 614.2 1091.1 616.2C1091.7 618.6 1090.9 621.9 1088.6 625.6L1086.5 628.7L1089.6 630.8C1089.8 630.9 1090.9 631.9 1091.3 633.5C1092 635.7 1091.2 638.3 1088.9 641.1L1086.7 643.6L1088.9 646.1C1089.1 646.4 1090.1 647.9 1089.6 649.9C1088.8 652.7 1085.3 655.5 1079.5 657.9C1077.8 658.6 1076.2 659 1074.9 659C1073.9 659 1072.2 658.8 1071.5 657.4C1070.9 656.2 1071.2 654.5 1072.3 652.9L1074.7 649.6L1071.4 647.3C1070.7 646.8 1068.8 645.1 1068.8 643.3C1068.8 641.6 1070.6 639.9 1072.1 638.7L1077.8 634.4L1071.1 631.8C1070.7 631.6 1068.4 630.4 1068.1 628.8C1067.8 627.1 1069.4 624.4 1072.6 621.4L1076 618.3L1072.4 615.4C1071.6 614.7 1069.4 612.4 1069.4 610.2C1069.4 608.7 1070.4 607.2 1072.3 605.6C1074.2 604.1 1081.2 600 1085.1 597.8L1086.8 596.9L1087.1 595L1087.7 592.7ZM1084.7 586.5L1083.3 594.5C1083.3 594.5 1072.7 600.4 1069.9 602.7C1059.9 610.7 1069.9 618.7 1069.9 618.7C1056.9 630.7 1069.6 635.7 1069.6 635.7C1058.9 643.7 1068.9 650.7 1068.9 650.7C1064.9 656.3 1067.6 663.1 1074.7 663.1C1076.5 663.1 1078.6 662.7 1080.9 661.7C1099.9 653.7 1091.9 643.7 1091.9 643.7C1099.9 633.7 1091.9 627.7 1091.9 627.7C1099.9 614.7 1090.9 609.7 1090.9 609.7C1094.9 605.7 1097.9 590.7 1084.7 586.5Z" fill="black"/>
<path d="M1073 620.7C1072.2 620.7 1071.4 620.2 1071.1 619.3C1070.8 618.3 1071.3 617.1 1072.4 616.8C1072.5 616.8 1082.1 613.6 1087.1 608C1087.8 607.2 1089.1 607.1 1089.9 607.9C1090.7 608.6 1090.8 609.9 1090 610.7C1084.2 617 1074 620.4 1073.5 620.5C1073.4 620.7 1073.2 620.7 1073 620.7Z" fill="black"/>
<path d="M1071.9 637.7C1071 637.7 1070.2 637.1 1070 636.2C1069.7 635.1 1070.3 634 1071.4 633.7C1075.1 632.6 1085.4 629.1 1088.4 625.4C1089.1 624.5 1090.4 624.4 1091.2 625.1C1092.1 625.8 1092.2 627 1091.5 627.9C1087.2 633.2 1074 637.1 1072.5 637.6C1072.3 637.7 1072.1 637.7 1071.9 637.7Z" fill="black"/>
<path d="M1071.9 653C1071 653 1070.2 652.4 1070 651.5C1069.7 650.4 1070.3 649.3 1071.4 649C1071.5 649 1083.1 645.8 1088.6 641.1C1089.4 640.4 1090.7 640.5 1091.4 641.4C1092.1 642.3 1092 643.5 1091.1 644.2C1084.8 649.4 1072.9 652.8 1072.3 652.9C1072.3 653 1072.1 653 1071.9 653Z" fill="black"/>
<path d="M1312 958.6C1300 950.9 1287.8 942.3 1275.6 933.2L1275.4 933.1L1275.7 932.8C1277.7 930.8 1295.1 912.9 1304.9 888.7C1310.1 875.9 1314.1 861.9 1317.6 849.6C1322.3 833.3 1326.3 819.1 1331.9 810.7L1332 810.5L1332.2 810.7C1353.9 835.4 1364.1 844.6 1364.2 844.7C1364.5 845 1390.7 869.6 1437.1 869.6C1458.3 869.6 1470.3 874 1476.6 877.6C1483.5 881.6 1485.2 885.5 1485.3 885.7L1485.4 885.8L1407 951.3L1406.9 951.2C1394.7 941.4 1379.3 936 1363.6 936H1363.4C1344 936 1325.3 944.2 1312.3 958.6L1312.2 958.7L1312 958.6Z" fill="#98D8F4"/>
<path d="M1363.7 987.2C1345.9 978.9 1328.5 969.3 1312 958.6L1311.8 958.5L1312 958.3C1325.2 943.8 1344 935.5 1363.5 935.5C1379.3 935.5 1394.8 940.9 1407.1 950.8L1407.3 951L1363.9 987.3L1363.7 987.2Z" fill="#6C79D9"/>
<path d="M1147.4 987.2C1139.2 957 1111.7 936 1080.5 935.9C1078.5 935.9 1076.4 936 1074.2 936.2H1074.1L1074 936C1071.4 925.5 1069.2 914.6 1067.3 903.7V903.6L1067.4 903.5C1086.8 892.5 1183.3 837.4 1184.1 837.4H1184.3V837.6C1184.3 861.4 1187.3 876.5 1187.3 876.7C1193.9 908.4 1204.9 923.2 1215.8 934.5C1218.8 937.7 1221.9 940.6 1225.2 943.6C1228.8 947 1232.6 950.6 1236.3 954.6C1253.2 972.5 1252.4 986.9 1252.4 987.1V987.3H1147.4V987.2Z" fill="#98D8F4"/>
<path d="M1090.1 987.2C1083.6 970.5 1078.1 953.4 1074 936.1L1073.9 935.9H1074.1C1076.3 935.7 1078.4 935.6 1080.5 935.6C1111.9 935.6 1139.5 956.8 1147.8 987L1147.9 987.3H1090.1V987.2V987.2Z" fill="#6C79D9"/>
<path d="M946.9 810.7C926.3 810.7 909.2 798.2 894.8 772.4C880.8 747.4 871.4 713.2 864.8 686.2C863 678.7 863.4 673.1 866.2 669.6C868.8 666.3 873.7 664.6 880.7 664.6C905.8 664.6 948.6 686.2 949 686.5L950.7 687.3L951.7 685.7C965.2 663.1 984.1 637.2 1002.2 616.2C1023.1 592.1 1035 583.5 1038.9 583.5C1039.1 583.5 1039.2 583.5 1039.3 583.6C1040.4 584 1041.1 584.7 1041.5 585.7C1042.6 588.8 1041.1 594.9 1037.3 602.8C1034.3 609.2 1030.8 614.5 1030.8 614.6L1030.4 615.3L1030.5 616.1C1030.5 616.3 1033.7 636.4 1022.4 650.5L1021.9 651.2L1023.2 661.8H1064.1C1056.3 682 1005.1 810.7 946.9 810.7Z" fill="white"/>
<path d="M1038.8 585.5C1039.2 585.7 1039.4 585.9 1039.6 586.3C1041.3 591.1 1034.3 605.3 1029.1 613.4L1028.3 614.7L1028.5 616.2C1028.5 616.4 1031.5 635.7 1020.8 649L1019.7 650.3L1019.9 652L1020.9 660L1021.3 663.5H1024.8H1061C1056.4 675.3 1044.4 704.9 1027.6 734.1C1008.2 768 978.4 808.5 946.7 808.5C926.8 808.5 910.4 796.3 896.4 771.2C882.5 746.4 873.2 712.4 866.6 685.5C864.9 678.6 865.2 673.6 867.6 670.6C869.8 667.8 874.2 666.4 880.5 666.4C905.1 666.4 947.5 687.8 947.9 688L951.2 689.7L953.1 686.5C966.6 664 985.4 638.1 1003.4 617.3C1023.8 594.3 1035.7 585.7 1038.8 585.5ZM1038.9 581.5C1026.5 581.5 979 636.1 949.9 684.7C949.9 684.7 906.6 662.6 880.7 662.6C867.2 662.6 858.5 668.6 862.9 686.7C878.4 749.8 899.9 812.7 946.9 812.7C1011.9 812.7 1066.9 659.7 1066.9 659.7H1024.9L1023.9 651.7C1035.9 636.7 1032.4 615.7 1032.4 615.7C1032.4 615.7 1051.9 585.7 1039.9 581.7C1039.6 581.6 1039.3 581.5 1038.9 581.5Z" fill="black"/>
<path d="M869 609C856.8 609 847 599.1 847 587C847 574.8 856.9 565 869 565C881.2 565 891 574.9 891 587C891 599.2 881.1 609 869 609Z" fill="white"/>
<path d="M869 567C880.1 567 889 576 889 587C889 598 880 607 869 607C858 607 849 598 849 587C849 576 857.9 567 869 567ZM869 563C855.7 563 845 573.8 845 587C845 600.2 855.8 611 869 611C882.2 611 893 600.2 893 587C893 573.8 882.3 563 869 563Z" fill="black"/>
<path d="M912.4 634.3C898.1 634.3 887.4 623.5 883.2 604.6C871.8 553.9 882.9 537.4 904.4 527.2C904.5 527.2 917.4 521.4 933 521.4C945.1 521.4 955.4 524.8 963.7 531.4C977.5 542.4 974.6 572.8 956.9 602C944.9 621.9 927.8 634.3 912.4 634.3Z" fill="white"/>
<path d="M933 523.5C944.6 523.5 954.5 526.7 962.5 533.1C968.5 537.9 971.2 547.1 970.2 559.1C969.1 572 963.8 586.9 955.3 601.1C943.7 620.4 927.2 632.3 912.4 632.3C898.9 632.3 889.2 622.3 885.2 604.2C874.1 554.8 884.6 538.8 905.3 529.1C905.8 528.8 918.1 523.5 933 523.5ZM933 519.5C916.8 519.5 903.6 525.5 903.6 525.5C879.5 536.8 870.3 556.2 881.3 605.1C886.1 626.5 898.3 636.3 912.5 636.3C928.1 636.3 945.9 624.4 958.8 603.2C977.3 572.6 979.5 541.6 965.1 530C954.9 521.9 943.3 519.5 933 519.5Z" fill="black"/>
<path d="M938.9 595.5C938 595.5 937.2 594.9 937 594C936.7 592.9 937.4 591.8 938.5 591.6C939.8 591.3 941 590.5 941.9 589.4C943.4 587.6 944.4 582.8 945.3 573.3C945.4 572.2 946.4 571.4 947.5 571.5C948.6 571.6 949.4 572.6 949.3 573.7C948.2 584.5 947.1 589.4 945 592C943.5 593.8 941.5 595 939.4 595.5C939.2 595.5 939.1 595.5 938.9 595.5Z" fill="black"/>
<path d="M930 578C929.9 578 929.7 578 929.6 578C928.5 577.8 927.8 576.7 928.1 575.6L928.6 573.2C928.8 572.1 929.9 571.4 931 571.6C932.1 571.8 932.8 572.9 932.5 574L932 576.4C931.8 577.4 930.9 578 930 578Z" fill="black"/>
<path d="M958.3 578C958.1 578 958 578 957.8 577.9C956.7 577.6 956.1 576.6 956.3 575.5L956.9 573C957.2 571.9 958.2 571.3 959.3 571.5C960.4 571.8 961 572.8 960.8 573.9L960.2 576.4C960 577.4 959.2 578 958.3 578Z" fill="black"/>
<path d="M929.9 606.4C929.3 606.4 928.7 606.4 928 606.3C922.5 605.3 918.8 600 919.8 594.5C920 593.4 921 592.7 922.1 592.9C923.2 593.1 923.9 594.1 923.7 595.2C923.4 596.8 923.8 598.4 924.7 599.8C925.7 601.2 927.1 602.1 928.7 602.4C929 602.5 929.4 602.5 929.8 602.5C930.9 602.5 931.8 603.4 931.8 604.5C931.8 605.6 931 606.4 929.9 606.4Z" fill="black"/>
<path d="M866.6 589.7C865.6 589.7 864.7 588.9 864.6 587.9C864.5 586.8 865.3 585.8 866.4 585.7L878.2 584.6C879.3 584.5 880.3 585.3 880.4 586.4C880.5 587.5 879.7 588.5 878.6 588.6L866.8 589.7C866.7 589.7 866.7 589.7 866.6 589.7Z" fill="black"/>
<path d="M998.9 522.7C990.9 510.3 965.3 508.9 952.8 523C929.3 513.9 903.5 525.4 903.5 525.4C880.9 536.1 871.3 553.8 879.4 596.5C914 581.7 917 534.7 917 534.7C917 534.7 938 561.4 971.6 560.9C971.7 560.9 971.8 560.9 971.8 560.9C972.5 560.9 973.2 560.9 973.9 560.8V560.7C997.7 558.4 1009.6 539.2 998.9 522.7Z" fill="black"/>
<path d="M893.1 986.9C882.1 986.9 844.2 984.3 820.2 951.1C807.7 933.9 800.9 911.1 799.9 883.3C798.7 850.5 805.8 810.6 820.9 764.6V764.5H942.9C944.3 762.7 968.8 730.1 1002.5 698.1C1034.3 667.7 1081.1 631.5 1123 631.5C1145.2 631.5 1166.2 644.4 1175.2 663.6C1214.2 746.9 1237.4 805.4 1244.2 824.6C1244.2 824.6 1224.9 811.3 1183.8 838C1168.9 847.5 1159.3 855 1150 862.1C1140.6 869.4 1131.8 876.2 1118.1 884.9C1091.4 901.7 1067.6 903.9 1067.4 903.9H1067.2V903.7C1061.9 872.7 1061 849.1 1060.8 844.5C1030 906 998.6 946.4 965.1 967.9C937.7 985.4 914.5 986.9 893.1 986.9Z" fill="#6C79D9"/>
<path d="M1061.3 845.7C1060.2 845.7 1059.4 844.9 1059.3 843.8C1057.3 798.1 1065.2 746.2 1065.3 745.7C1065.5 744.6 1066.5 743.9 1067.6 744C1068.7 744.2 1069.4 745.2 1069.3 746.3C1069.2 746.8 1061.4 798.3 1063.3 843.6C1063.3 844.7 1062.5 845.7 1061.3 845.7C1061.3 845.7 1061.4 845.7 1061.3 845.7Z" fill="black"/>
<path d="M912.9 813.7C912.6 813.7 912.2 813.6 911.9 813.4C911 812.8 910.6 811.6 911.2 810.7C920.8 794.6 931.4 778.3 941.7 763.6C942.3 762.7 943.6 762.5 944.5 763.1C945.4 763.7 945.6 765 945 765.9C934.8 780.5 924.3 796.7 914.7 812.8C914.2 813.4 913.6 813.7 912.9 813.7Z" fill="black"/>
<path d="M1243.8 826.4C1243 826.4 1242.2 825.9 1241.9 825.1C1234.3 803.8 1215.2 757 1189.6 700.4C1189.1 699.4 1189.6 698.2 1190.6 697.8C1191.6 697.3 1192.8 697.8 1193.2 698.8C1218.9 755.6 1238.1 802.5 1245.7 823.9C1246.1 824.9 1245.5 826.1 1244.5 826.5C1244.2 826.4 1244 826.4 1243.8 826.4Z" fill="black"/>
<path d="M922.9 796.7H811.9C810.8 796.7 809.9 795.8 809.9 794.7C809.9 793.6 810.8 792.7 811.9 792.7H922.9C924 792.7 924.9 793.6 924.9 794.7C924.9 795.8 924 796.7 922.9 796.7Z" fill="black"/>
<path d="M909.5 908C908.1 908 906.8 907.9 905.5 907.6C877.5 902.3 882.8 847.6 886.7 807.7C887.2 803 887.6 798.6 887.9 794.6C888 793.5 888.9 792.7 890.1 792.8C891.2 792.9 892 793.9 891.9 795C891.6 799 891.1 803.5 890.7 808.2C887.2 844.4 881.9 899.2 906.3 903.8C907.4 904 908.5 904.1 909.6 904.1C938.9 904.1 981.3 836.5 1009.7 791.2C1016.1 781 1022.1 771.4 1027.3 763.7C1049.1 731 1077.1 693.8 1100.2 696.4C1110.1 697.5 1118 705.8 1123.8 721.1C1131.7 741.9 1164.5 850.1 1164.8 851.2C1165.1 852.3 1164.5 853.4 1163.5 853.7C1162.4 854 1161.3 853.4 1161 852.4C1160.7 851.3 1127.9 743.2 1120 722.5C1114.8 708.8 1107.9 701.3 1099.7 700.4C1078.5 698 1050.1 736.6 1030.6 765.9C1025.5 773.6 1019.5 783.2 1013.1 793.3C982.5 842 941.1 908 909.5 908Z" fill="black"/>
<path d="M1316.9 853.7C1316.5 853.7 1316.1 853.6 1315.7 853.3L1230.7 793.3C1229.8 792.7 1229.6 791.4 1230.2 790.5C1230.8 789.6 1232.1 789.4 1233 790L1318 850C1318.9 850.6 1319.1 851.9 1318.5 852.8C1318.1 853.4 1317.5 853.7 1316.9 853.7Z" fill="black"/>
<path d="M1003.2 817.7C977 817.7 955.7 803 942.5 790.7C928.1 777.3 919.8 763.8 919.8 763.7C912.7 752.7 906.7 741.1 901.8 729L891.6 703.9L964.4 675.2L977.2 690.7C989.1 712.8 996.2 727.5 996.3 727.7L997.1 729.5L998.9 728.7C999.7 728.3 1082.3 691.6 1124.6 679.8C1140.6 675.3 1156.4 673 1170.1 673C1190.5 673 1203.1 678.3 1203.1 686.9V688.2L1204.3 688.7C1204.3 688.7 1208.5 690.7 1209.6 694.3C1210.2 696.3 1209.8 698.5 1208.4 700.8L1207.5 702.3L1208.9 703.4C1209.7 704 1216.1 709.4 1210.7 716.5L1209.9 717.6L1210.6 718.8C1210.6 718.8 1213.1 723.1 1211.4 726.7C1210.2 729.3 1206.9 731.1 1201.8 731.9C1197.8 732.6 1194.3 732.8 1191 733C1179.3 733.7 1168.2 734.4 1136.1 753.2C1124.7 759.8 1113.8 767.6 1103.1 775.2C1075.2 795 1046.3 815.5 1007.4 817.8C1006 817.6 1004.6 817.7 1003.2 817.7Z" fill="white"/>
<path d="M1170.1 674.8C1188.9 674.8 1201.1 679.5 1201.1 686.7V689.3L1203.4 690.4C1204.4 690.9 1207 692.5 1207.7 694.8C1208.1 696.2 1207.8 697.8 1206.7 699.7L1204.9 702.7L1207.7 704.9C1207.7 704.9 1209.4 706.3 1210.3 708.3C1211.4 710.6 1211 712.8 1209.2 715.2L1207.5 717.3L1208.9 719.6C1208.9 719.6 1210.8 723.1 1209.6 725.6C1208.4 728.1 1204.5 729.2 1201.5 729.7C1197.6 730.4 1194.2 730.6 1190.9 730.8C1178.9 731.5 1167.6 732.2 1135.2 751.2C1123.8 757.9 1112.7 765.7 1102.1 773.3C1074.4 793 1045.8 813.3 1007.5 815.5C1006.2 815.6 1004.8 815.6 1003.4 815.6C977.9 815.6 957.2 801.3 944.2 789.3C929.9 776.1 921.7 762.7 921.7 762.5V762.4V762.3C914.7 751.5 908.7 739.9 903.9 728L894.4 704.7L963.9 677.2L975.7 691.4C987.5 713.3 994.6 728 994.6 728.1L996.3 731.6L999.9 730C1000.7 729.6 1083.1 693 1125.3 681.2C1141 677.1 1156.5 674.8 1170.1 674.8ZM1170.1 670.8C1156.8 670.8 1140.8 673 1124.1 677.7C1081.1 689.7 998.1 726.7 998.1 726.7C998.1 726.7 991 711.9 978.9 689.5L965 672.7L889 702.7L900 729.7C904.9 741.9 911 753.6 918.1 764.7C918.1 764.7 951.3 819.7 1003.3 819.7C1004.7 819.7 1006.1 819.7 1007.6 819.6C1062 816.4 1096.2 778.8 1137.2 754.8C1178.2 730.8 1184.2 736.8 1202.2 733.8C1220.2 730.8 1212.4 717.7 1212.4 717.7C1219.2 708.8 1210.2 701.8 1210.2 701.8C1216.2 691.8 1205.2 686.8 1205.2 686.8C1205.1 676.3 1190.9 670.8 1170.1 670.8Z" fill="black"/>
<path d="M821.1 764.9C820.8 764.8 797.9 757.5 799.9 729.7C801.1 713.5 819.3 684.6 850 650.6C879.1 618.2 893.2 615.5 905.1 615.5C929.1 615.5 944.3 627.9 965.3 664.6C970 672.8 974.6 681.1 979.1 689.4L979.2 689.6L900.3 729.8C905.2 741.9 911.1 753.6 918.2 764.6L918.4 764.9H821.1V764.9Z" fill="#98D8F4"/>
<path d="M1141.1 691.7C1140.2 691.7 1139.4 691.1 1139.2 690.2C1138.9 689.1 1139.6 688 1140.6 687.8C1142 687.4 1176.2 678.8 1204.5 686.8C1205.6 687.1 1206.2 688.2 1205.9 689.3C1205.6 690.4 1204.5 691 1203.4 690.7C1176.2 682.9 1142 691.6 1141.6 691.7C1141.4 691.7 1141.3 691.7 1141.1 691.7Z" fill="black"/>
<path d="M1145.9 706.7C1145 706.7 1144.2 706.1 1144 705.2C1143.7 704.1 1144.4 703 1145.4 702.8C1146.6 702.5 1176.2 694.8 1208.3 700.8C1209.4 701 1210.1 702 1209.9 703.1C1209.7 704.2 1208.6 704.9 1207.6 704.7C1176.4 698.9 1146.8 706.6 1146.5 706.7C1146.2 706.7 1146.1 706.7 1145.9 706.7Z" fill="black"/>
<path d="M1150.9 721.7C1149.9 721.7 1149.1 721 1148.9 720C1148.7 718.9 1149.5 717.9 1150.5 717.7C1182.3 712.4 1199.1 713.9 1210.2 715.7C1211.3 715.9 1212 716.9 1211.8 718C1211.6 719.1 1210.6 719.8 1209.5 719.6C1198.7 717.8 1182.3 716.4 1151.2 721.6C1151.1 721.7 1151 721.7 1150.9 721.7Z" fill="black"/>
<path d="M1109.6 774.8C1108.8 774.8 1108.1 774.3 1107.8 773.6L1075 694.8C1074.6 693.8 1075.1 692.6 1076.1 692.2C1077.1 691.8 1078.3 692.3 1078.7 693.3L1111.5 772.1C1111.9 773.1 1111.4 774.3 1110.4 774.7C1110.1 774.8 1109.9 774.8 1109.6 774.8Z" fill="black"/>
<path d="M902.9 732.8C902.1 732.8 901.4 732.4 901.1 731.6C896.8 722 891 708.2 888.1 700.4C887.7 699.4 888.2 698.2 889.3 697.8C890.3 697.4 891.5 697.9 891.9 699C894.8 706.7 900.6 720.4 904.9 730C905.3 731 904.9 732.2 903.9 732.6C903.4 732.7 903.2 732.8 902.9 732.8Z" fill="black"/>
<path d="M1092.9 753.7C1104.5 753.7 1113.9 744.298 1113.9 732.7C1113.9 721.102 1104.5 711.7 1092.9 711.7C1081.3 711.7 1071.9 721.102 1071.9 732.7C1071.9 744.298 1081.3 753.7 1092.9 753.7Z" fill="white"/>
<path d="M1092.9 755.7C1080.2 755.7 1069.9 745.4 1069.9 732.7C1069.9 720 1080.2 709.7 1092.9 709.7C1105.6 709.7 1115.9 720 1115.9 732.7C1115.9 745.4 1105.6 755.7 1092.9 755.7ZM1092.9 713.7C1082.4 713.7 1073.9 722.2 1073.9 732.7C1073.9 743.2 1082.4 751.7 1092.9 751.7C1103.4 751.7 1111.9 743.2 1111.9 732.7C1111.9 722.2 1103.4 713.7 1092.9 713.7Z" fill="black"/>
<path d="M756.8 864.7C755.9 864.7 754.9 864.6 754 864.5C749.8 863.8 746.1 861.4 743.7 857.9C741.3 854.4 740.3 850.2 741 846C742.3 838.3 749 832.8 756.7 832.8C757.6 832.8 758.6 832.9 759.5 833L761.6 833.4L761.8 831.2C761.9 830 762.2 828.9 762.5 827.7C764.7 821.1 770.8 816.7 777.7 816.7C779.4 816.7 781.1 817 782.7 817.5L784.3 818L785.1 816.5C786.7 813.4 789.3 810.8 792.4 809.3C794.6 808.2 796.9 807.7 799.4 807.7C805.6 807.7 811.1 811.1 813.8 816.7L814.6 818.3L816.3 817.7C817.6 817.2 819 816.9 820.4 816.8C820.9 816.8 821.4 816.7 821.9 816.7C830.2 816.7 837 822.9 837.8 831.2L838 833.4L840.1 833C841 832.8 841.9 832.8 842.8 832.7C851.6 832.7 858.8 839.9 858.8 848.7C858.8 857.5 851.6 864.7 842.8 864.7H756.8V864.7Z" fill="white"/>
<path d="M799.4 809.7C804.8 809.7 809.6 812.7 812 817.6L813.6 820.9L817 819.6C818.1 819.2 819.3 818.9 820.6 818.8C821 818.8 821.5 818.7 821.9 818.7C829.1 818.7 835.1 824.1 835.8 831.4L836.2 835.7L840.5 834.9C841.3 834.8 842.1 834.7 842.9 834.7C850.6 834.7 856.9 841 856.9 848.7C856.9 856.4 850.6 862.7 842.9 862.7H756.9C756.1 862.7 755.3 862.6 754.5 862.5C750.8 861.9 747.6 859.8 745.5 856.8C743.4 853.7 742.5 850 743.2 846.3C744.4 839.6 750.2 834.7 757 834.7C757.8 834.7 758.6 834.8 759.4 834.9L763.7 835.6L764.1 831.3C764.2 830.3 764.4 829.3 764.7 828.3C766.6 822.5 771.9 818.7 778 818.7C779.5 818.7 780.9 818.9 782.3 819.4L785.6 820.5L787.1 817.4C788.5 814.7 790.7 812.4 793.5 811.1C795.2 810.2 797.2 809.7 799.4 809.7ZM799.4 805.7C796.8 805.7 794.1 806.3 791.6 807.5C788.1 809.2 785.2 812.1 783.4 815.6C781.5 815 779.7 814.7 777.8 814.7C770.2 814.7 763.2 819.5 760.7 827.1C760.3 828.4 760 829.7 759.9 831C758.9 830.8 757.8 830.7 756.8 830.7C748.2 830.7 740.6 836.9 739.1 845.6C737.4 855.4 743.9 864.7 753.7 866.4C754.7 866.6 755.8 866.7 756.8 866.7H842.8C852.7 866.7 860.8 858.6 860.8 848.7C860.8 838.8 852.7 830.7 842.8 830.7C841.8 830.7 840.7 830.8 839.7 831C838.8 821.7 831 814.7 821.8 814.7C821.2 814.7 820.7 814.7 820.1 814.8C818.5 814.9 817 815.3 815.5 815.8C812.4 809.4 806 805.7 799.4 805.7Z" fill="black"/>
<path d="M755.9 984.7L726.7 851.4H872.8L843.6 984.7H755.9Z" fill="white"/>
<path d="M870.3 853.4L842 982.7H757.4L729.1 853.4H870.3V853.4ZM875.3 849.4H724.3L754.3 986.7H845.3L875.3 849.4Z" fill="black"/>
<path d="M784.9 984.7L769.5 851.4H830L814.6 984.7H784.9Z" fill="white"/>
<path d="M827.8 853.4L812.8 982.7H786.8L771.8 853.4H827.8V853.4ZM832.3 849.4H767.3L783.2 986.7H816.4L832.3 849.4Z" fill="black"/>
</svg>
