<svg width="1600" height="1200" viewBox="0 0 1600 1200" fill="none" xmlns="http://www.w3.org/2000/svg">
<path d="M819.8 815.9H691.7V944H819.8V815.9Z" fill="#98D8F4"/>
<path d="M1203.5 815.9H1075.4V944H1203.5V815.9Z" fill="#F696BB"/>
<path d="M819.3 815.9V944H881.4C881.4 907.6 911 878.1 947.4 878.1C983.8 878.1 1013.3 907.6 1013.3 944H1075.4V815.9H819.3Z" fill="#E16259"/>
<path d="M882.7 687.9H754.6V816H882.7V687.9Z" fill="#6C79D9"/>
<path d="M1010.8 687.9H882.7V816H1010.8V687.9Z" fill="#F696BB"/>
<path d="M1010.8 432.1H882.7L946.7 304L1010.8 432.1Z" fill="#F696BB"/>
<path d="M1138.9 687.9H1010.8V816H1138.9V687.9Z" fill="#98D8F4"/>
<path d="M947.4 560.1H819.3V688.2H947.4V560.1Z" fill="#98D8F4"/>
<path d="M1075.5 560.1H947.4V688.2H1075.5V560.1Z" fill="#F696BB"/>
<path d="M1010.8 432.1H882.7V560.2H1010.8V432.1Z" fill="#E16259"/>
<path d="M755.8 913.6C736 913.6 719.9 897.5 719.9 877.8C719.9 876.7 720.8 875.8 721.9 875.8C723 875.8 723.9 876.6 723.9 877.8C723.9 895.4 738.2 909.7 755.8 909.7C773.3 909.7 787.6 895.4 787.6 877.8C787.6 876.7 788.5 875.8 789.6 875.8C790.7 875.8 791.6 876.7 791.6 877.8C791.6 897.5 775.5 913.6 755.8 913.6Z" fill="black"/>
<path d="M736.5 869.9C735.4 869.9 734.5 869 734.5 867.9V862.9C734.5 861.8 735.4 860.9 736.5 860.9C737.6 860.9 738.5 861.8 738.5 862.9V867.9C738.5 869 737.6 869.9 736.5 869.9Z" fill="black"/>
<path d="M775 869.9C773.9 869.9 773 869 773 867.9V862.9C773 861.8 773.9 860.9 775 860.9C776.1 860.9 777 861.8 777 862.9V867.9C777 869 776.1 869.9 775 869.9Z" fill="black"/>
<path d="M1138.8 817.9H754.6C753.5 817.9 752.6 817 752.6 815.9C752.6 814.8 753.5 813.9 754.6 813.9H1138.8C1139.9 813.9 1140.8 814.8 1140.8 815.9C1140.8 817 1139.9 817.9 1138.8 817.9Z" fill="black"/>
<path d="M819.4 946C818.3 946 817.4 945.1 817.4 944V815.8C817.4 814.7 818.3 813.8 819.4 813.8C820.5 813.8 821.4 814.7 821.4 815.8V944C821.4 945.1 820.5 946 819.4 946Z" fill="black"/>
<path d="M1075.8 689.7H817.7C816.6 689.7 815.7 688.8 815.7 687.7C815.7 686.6 816.6 685.7 817.7 685.7H1075.8C1076.9 685.7 1077.8 686.6 1077.8 687.7C1077.8 688.8 1076.9 689.7 1075.8 689.7Z" fill="black"/>
<path d="M1010.8 562.5H882.7C881.6 562.5 880.7 561.6 880.7 560.5C880.7 559.4 881.6 558.5 882.7 558.5H1010.8C1011.9 558.5 1012.8 559.4 1012.8 560.5C1012.8 561.6 1011.9 562.5 1010.8 562.5Z" fill="black"/>
<path d="M1010.8 435.2H882.7C881.6 435.2 880.7 434.3 880.7 433.2C880.7 432.1 881.6 431.2 882.7 431.2H1010.8C1011.9 431.2 1012.8 432.1 1012.8 433.2C1012.8 434.3 1011.9 435.2 1010.8 435.2Z" fill="black"/>
<path d="M1075.8 946C1074.7 946 1073.8 945.1 1073.8 944V815.8C1073.8 814.7 1074.7 813.8 1075.8 813.8C1076.9 813.8 1077.8 814.7 1077.8 815.8V944C1077.8 945.1 1076.9 946 1075.8 946Z" fill="black"/>
<path d="M1010.8 817.8C1009.7 817.8 1008.8 816.9 1008.8 815.8V687.6C1008.8 686.5 1009.7 685.6 1010.8 685.6C1011.9 685.6 1012.8 686.5 1012.8 687.6V815.8C1012.8 816.9 1011.9 817.8 1010.8 817.8Z" fill="black"/>
<path d="M947.6 689.6C946.5 689.6 945.6 688.7 945.6 687.6V560.4C945.6 559.3 946.5 558.4 947.6 558.4C948.7 558.4 949.6 559.3 949.6 560.4V687.6C949.6 688.7 948.7 689.6 947.6 689.6Z" fill="black"/>
<path d="M883.5 817.8C882.4 817.8 881.5 816.9 881.5 815.8V687.6C881.5 686.5 882.4 685.6 883.5 685.6C884.6 685.6 885.5 686.5 885.5 687.6V815.8C885.5 816.9 884.6 817.8 883.5 817.8Z" fill="black"/>
<path d="M880.3 657.6C874 657.6 867.2 655.8 860.2 652.1C859.2 651.6 858.8 650.4 859.4 649.4C860 648.4 861.1 648 862.1 648.6C883.4 659.8 894.9 649.4 897.9 645.9C904.3 638.6 905.1 627.9 899.8 620.4C894.8 613.5 887.5 611.1 878.1 613.5C870.7 615.4 864.8 619.5 864.7 619.5C864 620 863.2 620 862.5 619.6C861.8 619.2 861.5 618.4 861.6 617.6L865 595.4C865.1 594.4 866 593.7 867 593.7H898.1C899.2 593.7 900.1 594.6 900.1 595.7C900.1 596.8 899.2 597.7 898.1 597.7H868.7L866.2 613.9C876.2 608.3 893 604 903 618C909.4 627.1 908.6 639.6 900.8 648.4C895.6 654.5 888.4 657.6 880.3 657.6Z" fill="black"/>
<path d="M883.5 719.8C883 719.8 882.5 719.6 882.1 719.2C881.3 718.4 881.3 717.2 882.1 716.4L911.7 686.5C912.5 685.7 913.7 685.7 914.5 686.5C915.3 687.3 915.3 688.5 914.5 689.3L884.9 719.2C884.5 719.6 884 719.8 883.5 719.8Z" fill="black"/>
<path d="M883.5 769.3C883 769.3 882.5 769.1 882.1 768.7C881.3 767.9 881.3 766.7 882.1 765.9L960.8 686.5C961.6 685.7 962.8 685.7 963.6 686.5C964.4 687.3 964.4 688.5 963.6 689.3L884.9 768.7C884.5 769.1 884 769.3 883.5 769.3Z" fill="black"/>
<path d="M884.2 818.1C883.7 818.1 883.2 817.9 882.8 817.5C882 816.7 882 815.5 882.8 814.7L1008.6 687.1C1009.4 686.3 1010.6 686.3 1011.4 687.1C1012.2 687.9 1012.2 689.1 1011.4 689.9L885.6 817.5C885.2 817.9 884.7 818.1 884.2 818.1Z" fill="black"/>
<path d="M933.2 818.1C932.7 818.1 932.2 817.9 931.8 817.5C931 816.7 931 815.5 931.8 814.7L1008.9 736.8C1009.7 736 1010.9 736 1011.7 736.8C1012.5 737.6 1012.5 738.8 1011.7 739.6L934.6 817.5C934.2 817.9 933.7 818.1 933.2 818.1Z" fill="black"/>
<path d="M982.2 818.1C981.7 818.1 981.2 817.9 980.8 817.5C980 816.7 980 815.5 980.8 814.7L1008.9 786.3C1009.7 785.5 1010.9 785.5 1011.7 786.3C1012.5 787.1 1012.5 788.3 1011.7 789.1L983.6 817.5C983.2 817.9 982.7 818.1 982.2 818.1Z" fill="black"/>
<path d="M963.1 542.4C962.5 542.4 961.9 542.1 961.6 541.7L939.5 514.9L916.5 532.2C915.8 532.7 914.8 532.7 914.1 532.2C913.4 531.7 913.1 530.8 913.4 529.9L923.1 502L901.4 485C900.7 484.5 900.5 483.6 900.7 482.8C901 482 901.7 481.4 902.6 481.4L928.5 480.8L932 452.3C932.1 451.4 932.8 450.7 933.7 450.6C934.6 450.5 935.4 450.9 935.8 451.7L948.1 476.9L970.9 457.7C971.6 457.1 972.6 457.1 973.3 457.6C974 458.1 974.4 459 974.1 459.9L964.3 488.8L991.7 497.9C992.6 498.2 993.1 499 993.1 499.9C993.1 500.8 992.4 501.6 991.5 501.8L960.6 508.9L965.2 540.2C965.3 541.1 964.9 542 964 542.3C963.6 542.3 963.4 542.4 963.1 542.4ZM939.8 510.1C940.4 510.1 941 510.3 941.3 510.8L960 533.5L956.2 507.5C956 506.5 956.7 505.5 957.7 505.3L983.4 499.4L961 492C960.5 491.8 960.1 491.5 959.8 491C959.6 490.5 959.5 490 959.7 489.5L967.9 465.5L948.6 481.7C948.1 482.1 947.5 482.3 946.9 482.1C946.3 482 945.8 481.6 945.5 481L935.1 459.6L932.2 483.1C932.1 484.1 931.3 484.8 930.3 484.9L908.3 485.4L926.8 499.7C927.5 500.2 927.7 501.1 927.5 501.9L919.5 525L938.8 510.5C939 510.2 939.4 510.1 939.8 510.1Z" fill="black"/>
<path d="M1083.2 709.2C1083 709.2 1079.3 708.9 1074 704.5C1069.1 700.5 1061.8 692.1 1055.1 675L1055 674.8H1055.3C1055.4 674.8 1070.2 673.3 1083.3 671.4H1083.5V671.6C1083.5 671.8 1087.5 688.1 1087.5 697C1087.4 709.1 1083.3 709.2 1083.2 709.2Z" fill="black"/>
<path d="M1376 848C1374.4 834.3 1372.6 823 1370.9 812.1C1368.5 796.9 1366.2 782.6 1365 765V764.9L1365.1 764.8C1365.4 764.6 1392.8 746.2 1416.2 739.8C1422.2 738.2 1427.9 737.9 1432.9 737.9C1448.9 737.9 1454.3 745.8 1454.4 745.9C1454.5 746 1459.8 756 1455.2 772.1C1446.1 804 1407.3 831.1 1376.3 848.2L1376 848.3V848Z" fill="black"/>
<path d="M1286.6 942.2L1297 813.4L1299 782.9C1306.1 776.9 1350.1 740.1 1356.3 735.5C1356.8 735.2 1357.2 735 1357.5 735C1360.1 735 1363.2 747.4 1363.4 765.1V765.2C1364.6 782.9 1366.9 797.2 1369.3 812.4C1371 823.3 1372.8 834.6 1374.4 848.3C1378.6 883.6 1379.2 911.8 1376.5 942.3L1286.6 942.2Z" fill="white"/>
<path d="M1357.2 737.2C1357.9 738.3 1359.5 741.7 1360.5 750.9C1361.3 757.8 1361.4 764.2 1361.4 765V765.1V765.2C1362.6 783 1364.9 797.4 1367.3 812.6C1369 823.5 1370.8 834.7 1372.4 848.4C1376.5 882.8 1377.2 910.5 1374.7 940.2H1288.8L1299 813.5L1300.9 783.9C1309.5 776.6 1350.3 742.5 1357.2 737.2ZM1357.4 732.9C1356.6 732.9 1355.8 733.2 1355 733.8C1348.2 738.9 1297.5 781.4 1297 781.8L1296.9 781.9L1294.9 813.2L1284.4 944.2H1378.3V944C1381.1 912.7 1380.5 884 1376.3 848C1374.7 834.3 1372.9 823 1371.2 812.1C1368.8 796.9 1366.5 782.6 1365.3 765C1365.4 763.7 1364.9 732.9 1357.4 732.9Z" fill="black"/>
<path d="M1153 942.2C1153.3 938.9 1155.1 931.2 1164.3 923.4C1178.8 911.1 1186.9 900.3 1187.9 878.1C1188.1 874.4 1188.1 865.1 1188 850.4L1192.7 827.3L1308.3 780.7L1307.9 804.5V804.6C1311 863.8 1303 931.2 1301.7 942.2H1153Z" fill="white"/>
<path d="M1306.3 783.7L1305.9 804.4V804.5V804.6C1308.9 861.1 1301.7 925 1299.9 940.1H1155.4C1156.2 936.5 1158.6 930.7 1165.6 924.8C1180.2 912.5 1188.9 900.8 1189.9 878.1C1190.1 874.4 1190.1 865.1 1190 850.5L1194.4 828.7L1306.3 783.7ZM1310.4 777.7L1191 825.9L1186.1 850.2C1186.2 865 1186.2 874.3 1186 878C1185 899.4 1177.2 909.9 1163.1 921.9C1150.2 932.8 1151 944 1151 944.1V944.3H1303.5V944.1C1303.6 943.4 1313.4 869.3 1310 804.5L1310.4 777.7Z" fill="black"/>
<path d="M1324.9 944.2V944C1329.8 917 1352.3 896.1 1379.6 893.2H1379.8V893.4C1380.3 910.2 1379.8 927.3 1378.3 944.1V944.3H1324.9V944.2Z" fill="#6C79D9"/>
<path d="M1245 944.2V944C1250.3 914.4 1276.1 892.8 1306.2 892.8C1306.8 892.8 1307.3 892.8 1307.9 892.8H1308.5V893C1306.4 922.4 1303.6 943.7 1303.6 944V944.2H1245Z" fill="#6C79D9"/>
<path d="M1151 944.2V944C1151 943.9 1150.1 932.8 1163.1 921.8C1172.5 913.8 1179.6 906.2 1183.2 894.9L1183.3 894.6L1183.5 894.8C1199.2 907.1 1210.7 924.6 1215.7 943.9L1215.8 944.2H1151Z" fill="#6C79D9"/>
<path d="M1260.6 455.7C1285.07 455.7 1304.9 435.866 1304.9 411.4C1304.9 386.934 1285.07 367.1 1260.6 367.1C1236.13 367.1 1216.3 386.934 1216.3 411.4C1216.3 435.866 1236.13 455.7 1260.6 455.7Z" fill="black"/>
<path d="M1262.5 544.5C1249.8 544.5 1239.5 534.2 1239.5 521.5C1239.5 508.8 1249.8 498.5 1262.5 498.5C1275.2 498.5 1285.5 508.8 1285.5 521.5C1285.5 534.2 1275.2 544.5 1262.5 544.5Z" fill="white"/>
<path d="M1262.5 500.6C1274.1 500.6 1283.5 510 1283.5 521.6C1283.5 533.2 1274.1 542.6 1262.5 542.6C1250.9 542.6 1241.5 533.2 1241.5 521.6C1241.5 510 1250.9 500.6 1262.5 500.6ZM1262.5 496.6C1248.7 496.6 1237.5 507.8 1237.5 521.6C1237.5 535.4 1248.7 546.6 1262.5 546.6C1276.3 546.6 1287.5 535.4 1287.5 521.6C1287.5 507.8 1276.3 496.6 1262.5 496.6Z" fill="black"/>
<path d="M1266.5 526.3C1266.3 526.3 1266.1 526.3 1265.9 526.2L1249 520.9C1247.9 520.6 1247.4 519.4 1247.7 518.4C1248 517.3 1249.2 516.8 1250.2 517.1L1267.1 522.4C1268.2 522.7 1268.7 523.9 1268.4 524.9C1268.1 525.8 1267.4 526.3 1266.5 526.3Z" fill="black"/>
<path d="M1216.4 555C1199.1 555 1181.6 537.8 1173 512.2C1161.9 479 1165.7 448 1182 440.1C1188.3 437 1195.1 435.5 1202.4 435.5C1223.8 435.5 1242.1 449 1242.3 449.1C1253.5 457.8 1259 467 1260.1 478.8C1261.3 492 1256.9 508.7 1246.3 531.2C1239.1 546.5 1228.5 555 1216.4 555Z" fill="white"/>
<path d="M1202.5 437.4C1222.9 437.4 1240.5 450.1 1241.2 450.6C1259.7 465 1266.7 483.3 1244.5 530.3C1237.6 544.9 1227.6 553 1216.4 553C1199.9 553 1183.3 536.3 1174.9 511.5C1169.5 495.4 1167.5 479.3 1169.3 466.1C1171 453.9 1175.8 445.2 1182.9 441.8C1189 438.9 1195.5 437.4 1202.5 437.4ZM1202.5 433.4C1195.6 433.4 1188.4 434.7 1181.2 438.2C1164.2 446.5 1159.5 478 1171.2 512.8C1180.4 540.2 1198.8 557 1216.5 557C1228.5 557 1240.1 549.3 1248.2 532C1270.1 485.6 1265.2 464.1 1243.7 447.4C1243.6 447.4 1224.9 433.4 1202.5 433.4Z" fill="black"/>
<path d="M1243.6 447.4C1261.1 461 1267.7 477.7 1257.7 508.5C1257 510.6 1256.3 512.7 1255.5 514.9C1225.8 499.5 1224.9 452.3 1224.9 452.3C1195.3 473.3 1164.9 470.6 1164.9 470.6C1166 454.9 1171.6 442.9 1181.2 438.2C1211.5 423.4 1243.6 447.4 1243.6 447.4Z" fill="black"/>
<path d="M1193 509.6C1192.7 509.6 1192.4 509.5 1192.1 509.4C1190.2 508.4 1188.5 506.8 1187.4 504.7C1187.4 504.7 1187.4 504.6 1187.3 504.6C1185.8 501.6 1185.8 496 1187.1 485.5C1187.2 484.4 1188.2 483.6 1189.3 483.8C1190.4 483.9 1191.2 484.9 1191 486C1189.8 495.1 1189.8 500.6 1190.8 502.8C1191.6 504.1 1192.6 505.2 1193.9 505.9C1194.9 506.4 1195.2 507.6 1194.7 508.6C1194.4 509.2 1193.7 509.6 1193 509.6Z" fill="black"/>
<path d="M1205.9 494.1C1204.8 494.1 1203.9 493.2 1203.9 492.1V489.5C1203.9 488.4 1204.8 487.5 1205.9 487.5C1207 487.5 1207.9 488.4 1207.9 489.5V492.1C1207.9 493.2 1207 494.1 1205.9 494.1Z" fill="black"/>
<path d="M1177.5 487.8C1176.4 487.8 1175.5 486.9 1175.5 485.8V483.2C1175.5 482.1 1176.4 481.2 1177.5 481.2C1178.6 481.2 1179.5 482.1 1179.5 483.2V485.8C1179.5 486.9 1178.6 487.8 1177.5 487.8Z" fill="black"/>
<path d="M1201.5 522.7C1201.3 522.7 1201.2 522.7 1201 522.7C1200.5 522.7 1199.9 522.6 1199.4 522.5H1199.2C1198.1 522.3 1197.4 521.3 1197.6 520.2C1197.8 519.1 1198.8 518.4 1199.9 518.6H1200.2C1200.6 518.7 1200.9 518.7 1201.2 518.7C1204.8 518.9 1207.7 516.1 1207.9 512.6C1207.9 511.5 1208.9 510.6 1210 510.7C1211.1 510.7 1212 511.7 1211.9 512.8C1211.6 518.3 1207 522.7 1201.5 522.7Z" fill="black"/>
<path d="M1019.4 675C996.6 675 981.7 671.9 977.2 666.3C975.9 664.6 975.5 662.7 976.1 660.5L976.6 658.4L974.5 658C973.6 657.8 965.5 656 967.1 647.3L967.3 645.9L966.1 645.2C966.1 645.2 962.1 642.7 962.1 638.9C962.1 637.9 962.5 635.4 966 633.7L968.7 632.3L966.4 630.3C966.4 630.3 963.7 627.9 964.1 625.1C964.8 620.5 969.4 618.8 981.1 618.8H1002.1L996.2 615.1C993.6 613.5 992.4 611.5 992.8 609.2C993.2 606.3 996 603.7 999.7 602.7C1005.9 601 1013.2 599.7 1023.4 598C1032.4 596.5 1043.7 594.6 1058.3 591.7L1081.7 588.8C1087.6 592.4 1136.4 622.8 1142 651.1C1137.3 654 1108.6 662.5 1082.8 669.3C1069.7 671.2 1055.1 672.6 1055 672.7C1054.8 673 1037.6 675 1019.4 675Z" fill="white"/>
<path d="M1081.3 591.1C1089 595.8 1133.2 624 1139.8 650.3C1132.7 653.5 1106.4 661.3 1082.5 667.6C1069.5 669.5 1055 670.9 1054.9 670.9C1054.7 670.9 1037.7 672.8 1019.6 672.8C1009.3 672.8 984.6 672 979 664.9C978.1 663.7 977.8 662.4 978.2 660.8L979.2 656.7L975 655.9C975 655.9 972.9 655.5 971.2 654.1C969.3 652.6 968.6 650.5 969.1 647.5L969.6 644.8L967.2 643.4C967.2 643.4 964.1 641.4 964.1 638.8C964.1 638.2 964.4 636.6 966.9 635.4L972.3 632.7L967.7 628.8C967.4 628.5 965.9 626.9 966.1 625.4C966.5 622.7 969.2 620.8 981.1 620.8H995.1H1009L997.2 613.4C995.9 612.6 994.4 611.3 994.7 609.5C994.9 607.8 996.8 605.6 1000.2 604.6C1006.3 602.9 1013.6 601.7 1023.7 600C1032.7 598.5 1044 596.6 1058.6 593.7L1081.3 591.1ZM1082.2 587L1058 590C1026.8 596.3 1011.2 597.7 999.2 601C991 603.3 987.2 612 995.2 617H981.2C971.2 617 963.2 618 962.2 625C961.6 629 965.2 632 965.2 632C961.2 634 960.2 637 960.2 639C960.2 644 965.2 647 965.2 647C963.2 658 974.2 660 974.2 660C970.9 673.9 996.2 677 1019.4 677C1038 677 1055.2 675 1055.2 675C1055.2 675 1070 673.5 1083.2 671.6C1083.2 671.6 1144.7 655.3 1144.2 652C1139 620.5 1082.2 587 1082.2 587Z" fill="black"/>
<path d="M1186.1 850.2C1185.7 793.1 1183.2 675.8 1183 668.4C1180.8 669.8 1167.3 678.3 1149.4 687.2C1131.5 696.1 1105.4 707.2 1083.2 709.2C1083 709.2 1090.9 708.2 1083 671.5C1072.1 624.6 1058 590.4 1057.8 590.1L1057.7 589.9H1057.9C1075.5 586.4 1093.1 581.7 1110.1 575.9C1131.8 568.5 1149.6 557.6 1165.3 548C1186.4 535.1 1204.6 523.9 1226.2 523.9C1261.4 523.9 1285.1 543.7 1314.4 578C1354.8 625.4 1453.3 744.2 1454.4 745.8C1453.2 745.1 1438.3 721.3 1365.1 765.5C1357.3 770.7 1350 776.2 1342.4 781.9C1323.6 796 1304.2 810.5 1272.4 825.3C1225 847.4 1186.8 850.5 1186.4 850.5H1186.2L1186.1 850.2Z" fill="#6C79D9"/>
<path d="M1012.2 637C997.3 636.9 982.4 635.9 967.6 634C966.5 633.9 965.7 632.9 965.9 631.8C966 630.7 967 629.9 968.1 630.1C982.6 632 997.5 633 1012.2 633.1C1013.3 633.1 1014.2 634 1014.2 635.1C1014.2 636.1 1013.3 637 1012.2 637Z" fill="black"/>
<path d="M1011.2 651C996.7 651 982.2 650 967.9 648C966.8 647.8 966 646.8 966.2 645.7C966.4 644.6 967.4 643.8 968.5 644C983.2 646.1 998.3 647.1 1013.2 647C1014.3 647 1015.2 647.9 1015.2 649C1015.2 650.1 1014.3 651 1013.2 651C1012.5 651 1011.9 651 1011.2 651Z" fill="black"/>
<path d="M1014.2 664C997.7 663.4 985.1 661.9 977.6 661.1L977 661C975.9 660.9 975.1 659.9 975.2 658.8C975.3 657.7 976.3 656.9 977.4 657L978 657.1C985.9 658 997.9 659.4 1014.2 660C1015.3 660 1016.2 661 1016.1 662.1C1016.2 663.2 1015.3 664 1014.2 664Z" fill="black"/>
<path d="M1008.9 621.2C1002.4 621.2 1000.2 621 1000 621C998.9 620.9 998.1 619.9 998.2 618.8C998.3 617.7 999.2 616.9 1000.4 617C1000.5 617 1005.6 617.4 1022.2 617C1023.3 617 1024.2 617.9 1024.2 619C1024.2 620.1 1023.4 621 1022.2 621C1016.5 621.1 1012.2 621.2 1008.9 621.2Z" fill="black"/>
<path d="M1183.2 670C1182.5 670 1181.9 669.7 1181.5 669.1C1180.9 668.2 1181.2 666.9 1182.1 666.3C1205.7 651.5 1219.8 640.5 1219.9 640.4C1220.8 639.7 1222 639.9 1222.7 640.7C1223.4 641.5 1223.2 642.8 1222.4 643.5C1222.3 643.6 1208 654.7 1184.2 669.6C1183.9 669.9 1183.6 670 1183.2 670Z" fill="black"/>
<path d="M1155.7 683C1155.2 683 1154.6 682.8 1154.2 682.4C1147.8 675.6 1129 676.6 1122.3 677.6C1121.3 677.8 1120.3 677.1 1120.1 676.1C1119.9 675.1 1120.4 674.1 1121.4 673.7C1138.2 667.8 1152.4 655.7 1155.2 644.8C1156.5 639.8 1155.3 635.2 1151.8 631.3C1148.5 627.6 1144.6 625.8 1139.8 625.8C1139.8 625.8 1139.8 625.8 1139.7 625.8C1123.7 625.8 1104.9 646.1 1104.7 646.3C1104.1 646.9 1103.2 647.1 1102.5 646.8C1101.7 646.5 1101.2 645.7 1101.3 644.9C1101.8 628.8 1097 616.7 1088.5 612.5C1082.5 609.5 1075.2 611 1068.6 616.5C1067.7 617.2 1066.5 617.1 1065.8 616.2C1065.1 615.3 1065.2 614.1 1066.1 613.4C1074 606.9 1082.9 605.2 1090.3 608.9C1099.5 613.4 1104.8 624.6 1105.3 640.1C1111.8 633.9 1126.2 621.8 1139.7 621.8H1139.8C1145.7 621.8 1150.7 624.1 1154.8 628.6C1159.2 633.5 1160.7 639.5 1159.1 645.8C1156.6 655.6 1146.6 665.8 1133.4 672.8C1133.4 672.8 1133.4 672.8 1133.5 672.8C1141.7 672.8 1152.1 674 1157.3 679.6C1158.1 680.4 1158 681.7 1157.2 682.4C1156.7 682.8 1156.2 683 1155.7 683Z" fill="black"/>
<path d="M1085.1 682.7C1084.5 682.7 1083.8 682.4 1083.4 681.8C1082.8 680.9 1083 679.6 1084 679C1089.4 675.4 1091.5 670.6 1089.7 666.1C1088.1 662.3 1084.3 660.2 1080.5 660.9C1079.4 661.1 1078.4 660.4 1078.1 659.3C1077.9 658.2 1078.6 657.2 1079.7 656.9C1085.3 655.8 1091.1 659 1093.4 664.5C1095.4 669.4 1094.6 676.7 1086.2 682.2C1085.9 682.6 1085.5 682.7 1085.1 682.7Z" fill="black"/>
<path d="M1231.2 843C1230.8 843 1230.5 842.9 1230.1 842.7C1218.4 835.4 1212.4 823.6 1209.8 817.1C1206.5 822.5 1199.2 830.7 1186.1 830C1185 829.9 1184.2 829 1184.2 827.9C1184.3 826.8 1185.2 826 1186.3 826C1202.5 826.9 1208.1 812 1208.3 811.3C1208.6 810.5 1209.4 809.9 1210.3 810C1211.2 810 1211.9 810.6 1212.1 811.5C1212.1 811.7 1217.1 829.9 1232.2 839.3C1233.1 839.9 1233.4 841.1 1232.8 842.1C1232.5 842.7 1231.9 843 1231.2 843Z" fill="black"/>
<path d="M1259.2 833C1259.1 833 1259 833 1258.9 833C1257.8 832.8 1257 831.8 1257.2 830.7C1260 810.9 1243.8 791.5 1243.7 791.3C1243.2 790.7 1243.1 789.7 1243.5 789C1243.9 788.3 1244.8 787.9 1245.6 788C1246 788.1 1282.2 794.5 1293.5 783C1296.4 780.1 1297.3 776.3 1296.3 771.3C1293.3 756.4 1258.8 756.9 1245.7 758.4C1244.9 758.5 1244 758 1243.7 757.3C1243.3 756.5 1243.5 755.6 1244.1 755C1244.4 754.7 1269.5 729.5 1266.4 712C1265.4 706.6 1261.9 702.6 1255.5 699.7C1251 697.6 1246.6 697.6 1242.1 699.6C1225.2 707 1214.3 740.2 1214.2 740.5C1213.9 741.4 1213 742 1212 741.9C1211 741.7 1210.3 740.9 1210.3 739.9C1210.3 739.8 1210.2 731.1 1206.9 722.5C1202.6 711.5 1195 705.9 1184.3 705.9C1183.2 705.9 1182.3 705 1182.3 703.9C1182.3 702.8 1183.2 701.9 1184.3 701.9C1204.9 701.9 1211.4 720.1 1213.4 731.3C1217.9 720.4 1227.3 701.7 1240.5 695.9C1246 693.5 1251.6 693.5 1257.2 696C1264.7 699.4 1269.2 704.6 1270.4 711.2C1273.2 726.5 1257.9 745.8 1250.6 753.9C1263.7 753.1 1296.8 752.8 1300.3 770.4C1301.5 776.7 1300.2 781.8 1296.4 785.7C1286.3 796 1260.7 794 1249.9 792.5C1254.8 799.5 1263.6 814.9 1261.3 831.1C1261 832.3 1260.2 833 1259.2 833Z" fill="black"/>
<path d="M1210.4 789.6C1209.7 789.6 1209 789.5 1208.3 789.4C1201.3 788 1197.4 780.2 1197.7 773.5C1198 766.9 1202.1 762.3 1208.4 761.7C1216.4 760.9 1219.9 764.8 1221.3 767.2C1224.1 772 1223.4 779.2 1219.8 784.3C1217.5 787.7 1214.1 789.6 1210.4 789.6ZM1208.9 765.6C1202.7 766.2 1201.8 771.4 1201.7 773.6C1201.5 778.6 1204.4 784.5 1209 785.4C1212.9 786.1 1215.4 783.5 1216.6 781.9C1219.3 778.1 1219.9 772.6 1217.9 769.1C1216.3 766.4 1213.2 765.2 1208.9 765.6Z" fill="black"/>
<path d="M1340.8 744.9C1338 744.9 1335.1 744.2 1332.3 742.8C1327 740.2 1323.6 736 1322.2 730.4C1318.7 716.3 1329.5 696.5 1335.4 687C1321.1 691.8 1298.5 693.1 1286 684.5C1279 679.6 1275.9 672.1 1277.1 662.8C1277.9 656.2 1281.1 651 1286.5 647.3C1299 638.7 1320.6 640.4 1332.6 642.3C1324.1 634.6 1318.8 624.2 1319.2 614.9C1319.4 609.5 1321.7 602 1331.2 597.3C1332.2 596.8 1333.4 597.2 1333.9 598.2C1334.4 599.2 1334 600.4 1333 600.9C1326.8 604 1323.5 608.9 1323.2 615.1C1322.8 625.2 1330.6 637.4 1341.7 644.2C1342.5 644.7 1342.9 645.8 1342.5 646.7C1342.1 647.6 1341.1 648.1 1340.2 647.9C1339.8 647.8 1304.8 639.6 1288.7 650.7C1284.3 653.8 1281.8 657.9 1281 663.4C1280 671.2 1282.4 677.3 1288.2 681.3C1301.3 690.4 1327.9 687.1 1339.7 681C1340.5 680.6 1341.5 680.8 1342.1 681.5C1342.7 682.2 1342.8 683.2 1342.2 684C1342 684.3 1321.7 712.6 1325.9 729.7C1327 734.1 1329.6 737.3 1333.9 739.4C1338.2 741.5 1342.2 741.7 1346.3 739.8C1362.5 732.5 1372 697 1372.1 696.6C1372.3 695.8 1373 695.2 1373.7 695.1C1374.5 695 1375.3 695.4 1375.7 696C1375.8 696.1 1384.8 710.7 1399.2 713.9C1406.9 715.6 1414.9 713.8 1422.9 708.4C1423.8 707.8 1425.1 708 1425.7 709C1426.3 709.9 1426.1 711.2 1425.1 711.8C1416.1 717.8 1407.1 719.8 1398.3 717.8C1386.8 715.2 1378.6 706.6 1374.8 701.6C1371.7 711.6 1362.6 736.8 1348 743.4C1345.7 744.4 1343.3 744.9 1340.8 744.9Z" fill="black"/>
<path d="M1251.6 622.6C1247.8 622.6 1244.3 621.5 1241 619.3C1230 611.9 1224.9 594.2 1223 585.9C1216.8 593.9 1201.1 612 1187.2 612.8C1182.3 613.1 1178.1 611.3 1174.6 607.4C1162.8 594.3 1180.6 570.5 1187.8 561.9C1182.4 561.3 1172.7 559 1163.1 550.6C1162.3 549.9 1162.2 548.6 1162.9 547.8C1163.6 547 1164.9 546.9 1165.7 547.6C1178.5 558.9 1191.7 558.1 1191.8 558.1C1192.6 558 1193.4 558.5 1193.7 559.2C1194 559.9 1193.9 560.8 1193.4 561.4C1193.3 561.5 1186.2 569.2 1180.7 578.6C1175.9 586.8 1171.4 598 1177.4 604.7C1180 607.7 1183.1 609 1186.8 608.8C1202.4 607.9 1222.1 580.2 1222.3 579.9C1222.8 579.2 1223.6 578.9 1224.4 579.1C1225.2 579.3 1225.8 579.9 1225.9 580.7C1225.9 581 1230.2 607.3 1243 615.9C1246.8 618.4 1250.9 619.1 1255.4 618C1259.4 617 1262.2 614.9 1263.8 611.4C1270.4 597.4 1256.2 568.1 1256.1 567.8C1255.7 567 1255.9 566.1 1256.5 565.5C1257.1 564.9 1258 564.7 1258.8 565.1C1259.1 565.2 1286.4 577.2 1297.3 560.8C1297.9 559.9 1299.2 559.6 1300.1 560.2C1301 560.8 1301.3 562.1 1300.7 563C1290.8 577.9 1270.9 573.5 1261.8 570.5C1265.7 579.7 1273.3 600.8 1267.5 613.1C1265.4 617.7 1261.6 620.6 1256.4 621.9C1254.9 622.3 1253.2 622.6 1251.6 622.6Z" fill="black"/>
<path d="M1229.1 556.1C1225.2 556.1 1221.5 555.1 1219.8 553.4C1216.8 550.4 1215.8 546.3 1217 542.7C1218.2 539.1 1221.6 536.6 1226 536C1232.2 535.2 1237.6 536.7 1240.4 539.8C1241.8 541.4 1243.2 544.2 1242.2 548.4C1241.3 551.8 1238.6 554.3 1234.5 555.4C1232.8 555.9 1230.9 556.1 1229.1 556.1ZM1229.1 539.8C1228.2 539.8 1227.3 539.9 1226.4 540C1223.5 540.4 1221.5 541.8 1220.7 544C1220 546.2 1220.7 548.7 1222.5 550.6C1223.6 551.7 1228.8 552.9 1233.3 551.6C1235.2 551.1 1237.6 550 1238.2 547.5C1238.7 545.4 1238.4 543.8 1237.3 542.5C1235.9 540.8 1232.8 539.8 1229.1 539.8Z" fill="black"/>
<path d="M1378.4 672.6C1375.4 672.6 1373.2 671.7 1371.7 670.9C1366.9 668.3 1363.8 662.8 1363.9 657C1364 651.8 1366.7 647.5 1371.2 645.2C1372.2 644.7 1373.4 645.1 1373.9 646.1C1374.4 647.1 1374 648.3 1373 648.8C1368.6 651 1367.9 655 1367.9 657.1C1367.8 661.3 1370.1 665.5 1373.6 667.4C1377.5 669.5 1382.4 668.8 1387.6 665.3C1388.5 664.7 1389.8 664.9 1390.4 665.9C1391 666.8 1390.8 668.1 1389.8 668.7C1385.4 671.6 1381.5 672.6 1378.4 672.6Z" fill="black"/>
<path d="M350.1 804.2C339.2 800.3 303.5 792.3 303.1 792.2L302.9 792.1L303 791.9C316.2 759.8 334.7 751.2 343.5 751.2C344.9 751.2 346.1 751.4 347.2 751.7C347.5 751.9 354.3 756 355.3 771.9C356.3 787.8 350.3 803.8 350.3 804L350.2 804.2H350.1Z" fill="black"/>
<path d="M476.2 912.2C454.5 912.2 429 911.8 401.9 911.3C377.2 910.9 351.6 910.5 328.4 910.4H328.3L328.2 910.3C328.2 910.3 325.9 907.4 323.9 901.5C322.1 896.1 320.4 886.9 321.9 873.9C323.6 860.1 329.3 849.1 335.4 837.4C340.5 827.6 346.3 817.1 350.4 803.8C361.7 759.3 347.2 751.7 347.2 751.7C355.7 754.5 424.7 797.1 431.7 801.4C429.3 796 412.2 755.8 415 716.9V716.7C415 716.5 418.1 692.8 425 683.8L425.1 683.7H425.2C425.3 683.7 425.4 683.7 425.5 683.7C428.6 683.7 437.6 677.5 447.1 670.9C458.7 662.8 470.8 654.5 476 654.5C476.5 654.5 476.9 654.6 477.2 654.7C516 669.2 537 736.1 537.2 736.7C566 796 572.7 826.6 573.3 841.8C574.1 863.8 569.6 879.1 559.1 890.1C544.7 905.2 518.3 912.2 476.2 912.2Z" fill="#E16259"/>
<path d="M448 839C419.3 830.3 394.4 824.3 394.1 824.2L393.9 824.1L394 823.9C407.2 791.8 425.7 783.2 434.5 783.2C435.9 783.2 437.1 783.4 438.2 783.7C438.4 783.8 446.9 787 449.9 798.9C454.9 818.7 448.3 838.5 448.2 838.7V838.9L448 839Z" fill="black"/>
<path d="M415.1 717C398.4 713.4 386.5 708.4 379.8 702C374 696.5 373.4 691.2 373.8 687.7C373.8 687.5 375.1 678.7 393 677.5C395 677.4 397.2 677.3 399.5 677.3C412.4 677.3 424.9 683.9 425 683.9L425.3 684L425.1 684.3C418.2 693.2 415.2 716.8 415.2 717V717.2L415.1 717Z" fill="black"/>
<path d="M149.1 959.5C147.1 959.5 145.1 959.4 143.1 959.2H142.9L168.6 863.3H168.7C213.8 856.3 251.7 827.2 269.9 785.3L270 785.2H270.2C288.9 788.5 303.1 791.8 303.2 791.8C303.6 791.9 339.3 799.8 350.2 803.8L350.4 803.9L350.3 804.1C344.3 825.3 340.7 844.7 337 865.4L336.3 869.1C332.3 890.8 328.6 910.2 328.5 910.3V910.5H328.3C325.2 910.5 322.1 910.5 319 910.5C290.8 910.5 270.5 911.1 257.1 912.3C223.9 915.3 206.7 928.9 191.6 941C186.4 945.2 181.4 949.1 176.2 952.3C168 957 158.6 959.5 149.1 959.5Z" fill="#F696BB"/>
<path d="M240.1 991.5C238.1 991.5 236.1 991.4 234.1 991.2H233.9L260.1 893.4H260.2C302.7 885 338.5 856.2 355.9 816.5L356 816.4H356.2C377.3 819.9 394.1 823.8 394.3 823.9C394.5 824 419.5 830 448.2 838.7H448.3V838.8C448.4 848 443.2 860.6 437.8 874C433.5 884.5 429.1 895.3 426.4 906.1C423.3 918.6 423 931.4 425.4 944V944.2H351C348.9 944.2 346.8 944.3 344.7 944.6C313.8 948.2 297.3 961.3 282.7 972.9C277.5 977.1 272.5 981 267.3 984.2C259 989 249.6 991.5 240.1 991.5Z" fill="#F696BB"/>
<path d="M255.5 913.5C255.3 913.5 255.2 913.5 255 913.4C253.9 913.1 253.3 912 253.6 911L258.4 893C258.6 892.3 259.2 891.7 259.9 891.6C279.2 887.8 297.8 879.5 313.6 867.5C314.5 866.8 315.7 867 316.4 867.9C317.1 868.8 316.9 870 316 870.7C300 882.8 281.4 891.3 261.9 895.3L257.4 912.1C257.2 912.9 256.4 913.5 255.5 913.5Z" fill="black"/>
<path d="M425 944.2V944C422.6 931.3 422.9 918.5 426 905.9C428.8 894.6 433 883.9 437 873.6C441.8 861.4 446.2 849.9 447.8 838.9C454.2 801.6 446 786.8 438.2 783.8C446.6 786.6 505.3 812.3 512.5 815.5C509.6 811.8 494.1 791.4 474 761.1C456.7 735 447.6 696.1 462.4 676.4L462.5 676.3L594.3 704.9V705C595 706.2 662.3 821.7 664.3 874.1C665 893 659.8 908.4 648.9 919.8C633.2 936.1 605.7 944.3 567.1 944.3L425 944.2Z" fill="#E16259"/>
<path d="M179 824.5L192 775.8H192.2C213.4 776.6 238.9 779.7 270.2 785.2H270.5L270.4 785.4C260.1 809.1 243.2 829.1 221.6 843.3L221.5 843.4L179 824.5Z" fill="black"/>
<path d="M270.6 854.1L283 807.8H283.2C315.7 809.8 332.4 812.4 356.2 816.3H356.5L356.4 816.5C347.3 837.2 333 855.4 315 869.1L314.9 869.2L270.6 854.1Z" fill="black"/>
<path d="M547.1 462.1C571.953 462.1 592.1 441.953 592.1 417.1C592.1 392.247 571.953 372.1 547.1 372.1C522.247 372.1 502.1 392.247 502.1 417.1C502.1 441.953 522.247 462.1 547.1 462.1Z" fill="black"/>
<path d="M532.571 363.443C540.43 339.865 527.687 314.38 504.109 306.522C480.531 298.664 455.047 311.407 447.188 334.985C439.33 358.562 452.073 384.047 475.651 391.905C499.229 399.763 524.713 387.02 532.571 363.443Z" fill="black"/>
<path d="M540.9 534.5C528 534.5 517.6 524 517.6 511.2C517.6 498.4 528.1 487.9 540.9 487.9C553.7 487.9 564.2 498.4 564.2 511.2C564.2 524 553.8 534.5 540.9 534.5Z" fill="white"/>
<path d="M540.9 489.8C552.7 489.8 562.2 499.4 562.2 511.1C562.2 522.8 552.6 532.4 540.9 532.4C529.2 532.4 519.6 522.8 519.6 511.1C519.6 499.4 529.2 489.8 540.9 489.8ZM540.9 485.8C526.9 485.8 515.6 497.1 515.6 511.1C515.6 525.1 526.9 536.4 540.9 536.4C554.9 536.4 566.2 525.1 566.2 511.1C566.2 497.2 554.9 485.8 540.9 485.8Z" fill="black"/>
<path d="M536.4 515.2C535.4 515.2 534.5 514.5 534.4 513.5C534.3 512.4 535 511.4 536.1 511.3L553.9 509C555 508.9 556 509.6 556.1 510.7C556.2 511.8 555.5 512.8 554.4 512.9L536.6 515.2C536.6 515.2 536.5 515.2 536.4 515.2Z" fill="black"/>
<path d="M585.1 551.5C568.8 551.5 557.8 539.3 554.8 518.1C547.4 464.6 560.3 448.5 583.5 439.8C583.6 439.8 594.3 436.1 607.7 436.1C622.8 436.1 635.2 440.6 644.5 449.4C657.9 462.1 652.2 493.2 631.4 522C618.1 540.4 600.7 551.5 585.1 551.5Z" fill="white"/>
<path d="M607.8 438C622.4 438 634.3 442.3 643.3 450.8C649.1 456.3 651.1 466.1 649.1 478.5C646.9 491.8 640.1 506.8 630 520.7C617.1 538.4 600 549.4 585.2 549.4C570 549.4 559.7 537.9 556.9 517.7C549.7 465.5 562 449.9 584.3 441.6C584.8 441.5 595 438 607.8 438ZM607.8 434C593.8 434 582.9 437.9 582.9 437.9C557 447.5 545.7 466.8 552.9 518.3C556.2 542.3 569.3 553.4 585.2 553.4C600.7 553.4 618.9 542.7 633.2 523C655 492.9 660 461 646.1 447.8C634.4 437 619.9 434 607.8 434Z" fill="black"/>
<path d="M582.8 437.9C560.3 446.3 548.8 461.9 550.9 499.6C588.2 495.1 599.4 448.3 599.4 448.3C621.7 477.6 651.9 484.2 651.9 484.2C655.6 468.6 653.8 455.3 646 447.9C621.2 424.4 582.8 437.9 582.8 437.9Z" fill="black"/>
<path d="M613.5 513.4C612.6 513.4 611.8 512.8 611.5 511.8C611.3 510.7 611.9 509.7 613 509.4C614.4 509.1 615.8 508.4 616.9 507.3C618.6 505.5 620.1 500.4 621.8 491C622 489.9 623 489.2 624.1 489.4C625.2 489.6 625.9 490.6 625.7 491.7C623.7 502.5 622 507.6 619.7 510.1L619.6 510.2C617.9 511.7 615.9 512.8 613.8 513.3C613.8 513.4 613.6 513.4 613.5 513.4Z" fill="black"/>
<path d="M605.8 494.5C605.6 494.5 605.4 494.5 605.2 494.4C604.1 494.1 603.6 492.9 603.9 491.9L604.7 489.4C605 488.3 606.2 487.8 607.2 488.1C608.3 488.4 608.8 489.6 608.5 490.6L607.7 493.1C607.4 494 606.6 494.5 605.8 494.5Z" fill="black"/>
<path d="M635.1 497C634.9 497 634.7 497 634.5 496.9C633.4 496.6 632.9 495.4 633.2 494.4L634 491.9C634.3 490.8 635.5 490.3 636.5 490.6C637.6 490.9 638.1 492.1 637.8 493.1L637 495.6C636.7 496.5 635.9 497 635.1 497Z" fill="black"/>
<path d="M603.3 524C603.2 524 603.1 524 603 524C602.4 523.9 601.9 523.8 601.4 523.7C601.4 523.7 601.3 523.7 601.2 523.7C595.6 522.2 592.3 516.4 593.8 510.9C594.1 509.8 595.2 509.2 596.2 509.5C597.3 509.8 597.9 510.9 597.6 511.9C596.7 515.3 598.7 518.9 602.1 519.8C602.6 519.9 603 520 603.6 520.1C604.7 520.3 605.4 521.3 605.2 522.4C605.1 523.3 604.3 524 603.3 524Z" fill="black"/>
<path d="M778.8 829.1C771.9 829.1 763.2 826.8 752.9 822.2C726.7 810.4 703.4 793.4 684.8 779.8L682.6 778.2L674.5 761.3L718.8 701.6L730.7 706.9C743.1 715.7 754.3 723.1 764.1 729.7C779.4 739.9 790.5 747.3 793.5 751.3C795.7 754.2 796.4 756.6 795.7 758.5C794.4 761.9 788.8 763.1 788.7 763.1L783.8 764.1L788.1 766.8C788.2 766.9 801.2 775 811.1 780.8C818.3 785 821.9 790.2 821 794.8C820.5 797.5 818.3 799.7 815.8 800.1L813.7 800.4L814.1 802.5C814.1 802.6 815.4 809 812.7 812.6C811.6 814.1 810 814.9 807.8 815.1L806.3 815.2L806 816.7C805.9 817 804.4 825.3 794.2 825.3C793.3 825.3 792.3 825.2 791.2 825.1L790 824.9L789.3 825.9C789.5 825.8 786.9 829.1 778.8 829.1Z" fill="white"/>
<path d="M719.5 704L729.8 708.6C742.1 717.3 753.3 724.8 763.1 731.3C777.7 741 789.2 748.7 792 752.5C793 753.8 794.5 756.2 793.9 757.8C793.2 759.6 789.8 760.9 788.4 761.2L778.5 763.2L787 768.5C787.1 768.6 800.1 776.7 810.1 782.6C816.4 786.3 819.8 790.8 819 794.5C818.6 796.6 816.9 798 815.5 798.2L811.3 798.8L812.2 803C812.5 804.5 813 809.1 811.2 811.5C810.7 812.1 809.9 813 807.8 813.1L804.7 813.4L804.2 816.4C804.2 816.7 803 823.3 794.4 823.3C793.5 823.3 792.6 823.2 791.7 823.1L789.3 822.4L788 824.6C787.6 825 785.2 827.1 778.9 827.1C772.3 827.1 763.8 824.8 753.9 820.3C727.8 808.6 705.7 792.4 686.1 778.1L684.3 776.8L676.9 761.4L719.5 704ZM718.2 699L672.2 761L681.1 779.5C700.8 793.9 724.6 811.6 752.2 824C764.3 829.5 772.9 831.1 778.9 831.1C788.3 831.1 791.2 827 791.2 827C792.4 827.2 793.4 827.2 794.4 827.2C806.5 827.2 808.2 817 808.2 817C819.2 816 816.2 802 816.2 802C823.2 801 829.2 789 812.2 779C802.1 773.1 789.2 765 789.2 765C789.2 765 804.2 762 795.2 750C789.9 743 764.2 728 731.7 705L718.2 699Z" fill="black"/>
<path d="M680.9 779.6C667.8 770.2 655.1 759.9 643.1 749.2C641.6 749.8 626.6 755.9 602.9 755.9C581.9 755.9 560.4 751.3 539.1 742.1C510.9 730.1 495 719.7 481 710.5C464.5 699.7 451.5 691.2 425.2 684.2C400.5 678.2 379.3 680.4 373.9 687.6C374.3 685.8 375.5 683.8 376.2 682.5C379.6 676.8 410 642.7 510 552.8C532.9 532.2 551.8 522.6 569.5 522.6C579.3 522.6 588.8 525.5 599.2 531.8C618.5 543.4 633.5 569.1 650.8 598.9C660.7 615.9 670.9 633.5 683.2 650.8C698.6 672.6 714 689.7 731.7 704.8L731.8 704.9L680.9 779.7V779.6V779.6Z" fill="#F696BB"/>
<path d="M785.2 767C784.8 767 784.5 766.9 784.2 766.7L769.2 757.7C768.3 757.1 767.9 755.9 768.5 755C769.1 754.1 770.3 753.7 771.2 754.3L786.2 763.3C787.1 763.9 787.5 765.1 786.9 766C786.5 766.7 785.9 767 785.2 767Z" fill="black"/>
<path d="M814.2 803C813.9 803 813.7 803 813.4 802.9C791.5 793.9 749.8 765.9 748 764.7C747.1 764.1 746.8 762.8 747.5 761.9C748.2 761 749.4 760.7 750.3 761.4C750.7 761.7 793.4 790.4 814.9 799.2C815.9 799.6 816.4 800.8 816 801.8C815.7 802.5 815 803 814.2 803Z" fill="black"/>
<path d="M806.5 817.5C806.4 817.5 806.3 817.5 806.2 817.5C795.4 815.8 752.3 789 738 779.7C737.1 779.1 736.8 777.9 737.4 776.9C738 776 739.2 775.7 740.2 776.3C762 790.5 798.3 812.1 806.8 813.5C807.9 813.7 808.6 814.7 808.5 815.8C808.3 816.8 807.5 817.5 806.5 817.5Z" fill="black"/>
<path d="M791.2 827C791 827 790.9 827 790.7 826.9C777.6 823.4 752.1 807.4 736.9 797.9C734.3 796.3 732 794.8 730.1 793.7C729.2 793.1 728.9 791.9 729.4 790.9C730 790 731.2 789.7 732.2 790.2C734.1 791.4 736.4 792.8 739 794.4C754 803.8 779.2 819.6 791.7 822.9C792.8 823.2 793.4 824.3 793.1 825.3C792.9 826.4 792.1 827 791.2 827Z" fill="black"/>
<path d="M643.2 751C642.7 751 642.3 750.8 641.9 750.5C601.1 715.7 571.8 666.5 571.5 666C570.9 665 571.3 663.8 572.2 663.3C573.2 662.7 574.4 663.1 574.9 664C575.2 664.5 604.2 713.1 644.5 747.5C645.3 748.2 645.4 749.5 644.7 750.3C644.3 750.8 643.8 751 643.2 751Z" fill="black"/>
<path d="M484.2 643C483.8 643 483.4 642.9 483.1 642.7C482.9 642.5 458.3 626.2 430 629.3C428.9 629.4 427.9 628.6 427.8 627.5C427.7 626.4 428.5 625.4 429.6 625.3C459.4 622 484.3 638.6 485.3 639.3C486.2 639.9 486.4 641.2 485.8 642.1C485.5 642.7 484.8 643 484.2 643Z" fill="black"/>
<path d="M506.2 612C505.8 612 505.4 611.9 505.1 611.7C504.9 611.6 486 599 462.5 597.9C461.4 597.9 460.5 596.9 460.6 595.8C460.7 594.7 461.6 593.8 462.7 593.9C487.4 595 506.5 607.8 507.3 608.3C508.2 608.9 508.5 610.2 507.8 611.1C507.5 611.7 506.8 612 506.2 612Z" fill="black"/>
<path d="M359.2 947C358.1 947 357.2 946.1 357.2 945V913C357.2 911.9 358.1 911 359.2 911C360.3 911 361.2 911.9 361.2 913V945C361.2 946.1 360.3 947 359.2 947Z" fill="black"/>
<path d="M331.5 948.5C330.6 948.5 329.9 948 329.6 947.1L319.7 915.6C319.4 914.5 320 913.4 321 913.1C322.1 912.8 323.2 913.4 323.5 914.4L333.4 945.9C333.7 947 333.1 948.1 332.1 948.4C331.9 948.5 331.7 948.5 331.5 948.5Z" fill="black"/>
<path d="M231.3 919.5C230.5 919.5 229.7 919 229.4 918.1L219.4 886.6C219.1 885.5 219.6 884.4 220.7 884.1C221.8 883.8 222.9 884.3 223.2 885.4L233.2 916.9C233.5 918 233 919.1 231.9 919.4C231.7 919.5 231.5 919.5 231.3 919.5Z" fill="black"/>
<path d="M681 781.5C680.6 781.5 680.2 781.4 679.9 781.2C679 780.6 678.8 779.3 679.4 778.4L730.1 703.9C730.7 703 732 702.7 732.9 703.4C733.8 704 734 705.3 733.4 706.2L682.7 780.7C682.3 781.2 681.6 781.5 681 781.5Z" fill="black"/>
<path d="M626.8 735.8C626.3 735.8 625.9 735.6 625.5 735.3C624.7 734.6 624.6 733.3 625.3 732.5L688.6 659.1C689.3 658.3 690.6 658.2 691.4 658.9C692.2 659.6 692.3 660.9 691.6 661.7L628.3 735.1C627.9 735.6 627.4 735.8 626.8 735.8Z" fill="black"/>
<path d="M672.2 748C678.828 748 684.2 742.627 684.2 736C684.2 729.373 678.828 724 672.2 724C665.573 724 660.2 729.373 660.2 736C660.2 742.627 665.573 748 672.2 748Z" fill="black"/>
<path d="M573.2 844C572.9 844 572.7 843.9 572.4 843.8C571.1 843.3 446.4 788.8 437.6 785.9C436.6 785.6 436 784.4 436.3 783.4C436.6 782.4 437.8 781.8 438.8 782.1C447.8 785.1 568.8 837.9 574 840.2C575 840.6 575.5 841.8 575 842.8C574.7 843.6 574 844 573.2 844Z" fill="black"/>
<path d="M513.2 818C512.6 818 512 817.7 511.6 817.2C511.4 817 494.8 795.7 472.5 762.1C463.6 748.6 457.5 733.6 454.4 717.5C454.2 716.4 454.9 715.4 456 715.2C457.1 715 458.1 715.7 458.3 716.8C461.3 732.4 467.2 746.9 475.8 760C498 793.4 514.5 814.7 514.7 814.9C515.4 815.8 515.2 817 514.4 817.7C514.1 817.9 513.6 818 513.2 818Z" fill="black"/>
</svg>
